<?xml version="1.0" encoding="utf-8"?>
<!-- Generator: Adobe Illustrator 24.0.1, SVG Export Plug-In . SVG Version: 6.00 Build 0)  -->
<svg version="1.1" id="Layer_1" xmlns="http://www.w3.org/2000/svg" xmlns:xlink="http://www.w3.org/1999/xlink" x="0px" y="0px"
	 viewBox="0 0 250 250" style="enable-background:new 0 0 250 250;" xml:space="preserve">
<style type="text/css">
	.st0{fill:#FFFFFF;}
</style>
<g id="_x32_20f982032">
	<g>
		<g>
			<path class="st0" d="M178.8,165c-33.1,0-66.2,0-99.2,0c0-33.1,0-66.2,0-99.2c33.1,0,66.2,0,99.2,0
				C178.8,98.9,178.8,132,178.8,165z M178.1,115.1c0-27.4-21.1-48.5-48.4-48.5c-27.4,0-48.5,21-48.6,48.3c0,27.6,21,48.7,48.6,48.7
				C157,163.5,178.1,142.4,178.1,115.1z"/>
			<path d="M178.1,115.1c0,27.4-21.1,48.5-48.4,48.5c-27.6,0-48.6-21-48.6-48.7c0-27.3,21.1-48.3,48.6-48.3
				C157,66.6,178.1,87.7,178.1,115.1z M174.8,115.1c0-24.7-20.3-45-45.1-45.2c-24.6-0.2-45,20.1-45.3,45
				c-0.3,24.6,20.6,45.5,45.3,45.4C154.5,160.1,174.8,139.8,174.8,115.1z"/>
			<path class="st0" d="M174.8,115.1c0,24.7-20.4,45.1-45.1,45.2c-24.7,0.1-45.6-20.8-45.3-45.4c0.3-24.9,20.7-45.2,45.3-45
				C154.5,70,174.8,90.4,174.8,115.1z M138.7,136c-6.5-1.2-7.3-2.4-5.7-8.6c0.8-3.2,1.8-6.4,2.6-9.6c1.1-4.8,0.2-7.7-2.9-9.4
				c-3.2-1.7-8.8-0.8-11.6,1.9c5.9,3,5.9,3.1,4.2,10c-0.9,3.5-2,6.9-2.7,10.4c-0.7,3.2,0.5,5.8,3.4,7.5
				C129.2,140,135.4,139,138.7,136z M134.6,101c2.9-0.1,5.4-2.3,5.4-4.9c0-2.9-2.4-4.9-5.8-4.7c-3.3,0.2-5.3,2.1-5.1,5
				C129.3,99.2,131.6,101.1,134.6,101z"/>
			<path d="M138.7,136c-3.3,3-9.5,3.9-12.7,2.1c-2.9-1.6-4.1-4.3-3.4-7.5c0.7-3.5,1.8-6.9,2.7-10.4c1.8-6.8,1.7-7-4.2-10
				c2.8-2.7,8.3-3.6,11.6-1.9c3.1,1.7,4.1,4.6,2.9,9.4c-0.8,3.2-1.8,6.4-2.6,9.6C131.4,133.7,132.2,134.8,138.7,136z"/>
			<path d="M134.6,101c-3.1,0.1-5.3-1.8-5.5-4.7c-0.2-2.8,1.9-4.8,5.1-5c3.4-0.2,5.8,1.8,5.8,4.7C140,98.7,137.6,100.9,134.6,101z"
				/>
		</g>
	</g>
</g>
</svg>
