<svg width="42" height="42" viewBox="0 0 42 42" fill="none" xmlns="http://www.w3.org/2000/svg">
<path d="M28.875 2.625C30.3247 2.625 31.5 3.80025 31.5 5.25V36.75C31.5 38.1997 30.3247 39.375 28.875 39.375H13.125C11.6753 39.375 10.5 38.1997 10.5 36.75V5.25C10.5 3.80025 11.6753 2.625 13.125 2.625H28.875ZM13.125 0C10.2255 0 7.875 2.3505 7.875 5.25V36.75C7.875 39.6495 10.2255 42 13.125 42H28.875C31.7745 42 34.125 39.6495 34.125 36.75V5.25C34.125 2.35051 31.7745 0 28.875 0H13.125Z" fill="#2D3436"/>
<path d="M21 36.75C22.4497 36.75 23.625 35.5747 23.625 34.125C23.625 32.6753 22.4497 31.5 21 31.5C19.5503 31.5 18.375 32.6753 18.375 34.125C18.375 35.5747 19.5503 36.75 21 36.75Z" fill="#2D3436"/>
</svg>
