<svg width="42" height="42" viewBox="0 0 42 42" fill="none" xmlns="http://www.w3.org/2000/svg">
<path d="M9.59142 3.48729C8.93401 2.64205 7.68456 2.56426 6.92738 3.32143L4.21334 6.03548C2.94421 7.3046 2.47766 9.10259 3.03214 10.6797C5.25886 17.0132 8.9044 22.9601 13.9721 28.0279C19.0399 33.0956 24.9868 36.7411 31.3203 38.9679C32.8974 39.5223 34.6954 39.0558 35.9645 37.7867L38.6786 35.0726C39.4357 34.3154 39.358 33.066 38.5127 32.4086L32.459 27.7001C32.0272 27.3643 31.4649 27.2456 30.9342 27.3783L25.1879 28.8148C23.6271 29.205 21.9761 28.7477 20.8384 27.6101L14.3899 21.1616C13.2523 20.024 12.795 18.3729 13.1852 16.8121L14.6217 11.0658C14.7544 10.5351 14.6357 9.97284 14.2999 9.54104L9.59142 3.48729ZM4.94753 1.34157C6.89558 -0.606476 10.1102 -0.406343 11.8016 1.76829L16.51 7.82204C17.3741 8.93297 17.6794 10.3795 17.3381 11.7448L15.9015 17.4911C15.7498 18.0978 15.9276 18.7395 16.3698 19.1817L22.8183 25.6302C23.2605 26.0724 23.9022 26.2502 24.5089 26.0985L30.2552 24.6619C31.6205 24.3206 33.067 24.6259 34.178 25.49L40.2317 30.1984C42.4063 31.8898 42.6065 35.1044 40.6584 37.0525L37.9444 39.7665C36.0026 41.7083 33.0983 42.5609 30.3916 41.6093C23.671 39.2465 17.3628 35.3782 11.9923 30.0077C6.62181 24.6372 2.75349 18.3289 0.3907 11.6084C-0.560916 8.9017 0.291716 5.99739 2.23348 4.05562L4.94753 1.34157Z" fill="#2D3436"/>
</svg>
