<svg width="60" height="50" viewBox="0 0 60 50" fill="none" xmlns="http://www.w3.org/2000/svg">
<path d="M44 49C46.2091 49 48 47.2091 48 45C48 42.7909 46.2091 41 44 41C41.7909 41 40 42.7909 40 45C40 47.2091 41.7909 49 44 49Z" stroke="white" stroke-width="2" stroke-miterlimit="10"/>
<path d="M27 49C29.2091 49 31 47.2091 31 45C31 42.7909 29.2091 41 27 41C24.7909 41 23 42.7909 23 45C23 47.2091 24.7909 49 27 49Z" stroke="white" stroke-width="2" stroke-miterlimit="10"/>
<path d="M21.4493 41C17.7936 40.6625 15.7661 37.3394 16.8734 33.8941C17.2555 32.7014 17.3304 31.2445 17.0216 30.0365C15.8987 25.6444 14.6167 21.289 13.277 16.9549C12.0152 12.8728 10.6506 8.81974 9.20483 4.79721C9.00052 4.2291 8.10686 3.59991 7.47522 3.5373C5.72221 3.36168 3.90994 3.65184 2.18034 3.38306C1.38181 3.25936 0.7221 2.26671 0 1.66653C0.701825 1.12439 1.3709 0.174499 2.11327 0.116467C4.63828 -0.079009 7.18981 0.027892 9.73041 0.0401093C12.0418 0.0523265 12.4239 1.96127 12.9884 3.49607C14.2096 6.82069 14.1379 6.84665 17.8357 6.84665C30.7727 6.84665 43.7112 6.84207 56.6482 6.84971C60.0965 6.85123 60.4958 7.36436 59.5725 10.5729C57.545 17.6207 55.4645 24.6548 53.4962 31.7195C52.9831 33.5627 52.0271 34.2622 50.0573 34.2439C40.971 34.1614 31.8831 34.2087 22.7968 34.2057C21.5616 34.2057 20.1315 33.9781 20.1845 35.8382C20.236 37.6158 21.6349 37.4845 22.8842 37.4845C31.7396 37.4845 40.5967 37.4845 49.4522 37.4845C49.9918 37.4845 50.8558 37.4219 51.2566 37.654C51.4703 37.7777 51.4578 37.796 51.6543 37.9503C52.6525 38.7352 52.6525 40.0028 51.6013 40.7175C51.4438 40.8244 51.2816 40.9038 51.1085 40.9404M15.1937 10.4339C15.3232 11.025 15.3934 11.4526 15.5103 11.8649C17.1323 17.5261 18.7949 23.175 20.3638 28.8499C20.7428 30.2229 21.3417 30.7283 22.8717 30.7085C30.0958 30.6123 37.3231 30.6657 44.5503 30.6657C50.0479 30.6657 50.062 30.6688 51.5841 25.4352C53.0299 20.4658 54.446 15.4873 55.8996 10.4324H15.1937V10.4339Z" fill="white"/>
</svg>
