<svg width="46" height="43" viewBox="0 0 46 43" fill="none" xmlns="http://www.w3.org/2000/svg">
<path d="M45.3478 21.268C45.3478 33.2834 35.5923 42.5361 22.9702 42.5361C10.2093 42.5361 0.5 33.3272 0.5 21.1803C0.5 9.20885 10.2556 0 22.9702 0C35.5923 0 45.3478 9.2527 45.3478 21.268ZM43.8221 21.268C43.8221 10.4367 34.4364 1.53481 22.9702 1.44711C11.5964 1.3594 2.16446 10.2613 2.02575 21.1803C1.88705 31.9678 11.5501 41.1328 22.9702 41.089C34.4364 41.0013 43.8221 32.0994 43.8221 21.268Z" fill="white"/>
<path d="M27.1315 30.433C25.6057 31.7486 22.7392 32.1433 21.2597 31.3539C19.9188 30.6523 19.364 29.4683 19.6877 28.0651C20.0113 26.5303 20.5199 25.0393 20.936 23.5045C21.7682 20.5226 21.722 20.4349 18.9941 19.1193C20.2887 17.9353 22.8316 17.5407 24.3574 18.2861C25.7907 19.0316 26.253 20.3033 25.6982 22.4082C25.3283 23.8115 24.866 25.2147 24.4961 26.618C23.7563 29.4245 24.1262 29.9068 27.1315 30.433Z" fill="white"/>
<path d="M25.2355 15.085C23.8022 15.1288 22.7851 14.2956 22.6926 13.0239C22.6001 11.7961 23.5711 10.9191 25.0506 10.8314C26.6226 10.7437 27.7322 11.6207 27.7322 12.8924C27.7322 14.0764 26.6226 15.0411 25.2355 15.085Z" fill="white"/>
</svg>
