<svg width="56" height="54" viewBox="0 0 56 54" fill="none" xmlns="http://www.w3.org/2000/svg">
<path d="M27.5705 1.55533C42.2191 1.58485 54.0043 13.0295 53.9741 27.0383C53.9437 41.0473 42.1087 52.4451 27.4599 52.4156C12.8112 52.3859 1.02679 40.9406 1.05726 26.9316C1.088 12.9229 12.922 1.52595 27.5705 1.55533Z" stroke="white" stroke-width="2"/>
<path d="M27.5217 29.8734C31.7282 29.8819 35.7279 31.573 38.6717 34.102C41.6276 36.6414 43.4168 39.9294 43.41 43.0676C43.4036 46.0549 41.5858 48.1678 38.4955 49.586C35.3782 51.0166 31.1232 51.6444 26.7263 51.6356C22.3261 51.6266 18.4722 50.9806 15.7572 49.5607C13.107 48.1746 11.5704 46.0812 11.5771 43.0034C11.5841 39.8653 13.3865 36.5845 16.3534 34.057C19.3081 31.5399 23.3152 29.865 27.5217 29.8734Z" stroke="white" stroke-width="2"/>
<path d="M27.5549 9.10667C32.4549 9.1166 36.3533 12.9386 36.3432 17.5639C36.3331 22.1891 32.4181 25.9954 27.5182 25.9855C22.6182 25.9757 18.72 22.1536 18.73 17.5284C18.74 12.9031 22.6549 9.0968 27.5549 9.10667Z" stroke="white" stroke-width="2"/>
</svg>
