<svg width="39" height="39" viewBox="0 0 39 39" fill="none" xmlns="http://www.w3.org/2000/svg">
<path d="M14.0333 2.61118C14.6105 2.95749 14.7976 3.70612 14.4513 4.28329L8.24629 14.625H30.7537L24.5487 4.28329C24.2024 3.70612 24.3895 2.95749 24.9667 2.61118C25.5439 2.26488 26.2925 2.45203 26.6388 3.02921L33.5963 14.625H37.7812C38.4543 14.625 39 15.1707 39 15.8438V18.2813C39 18.9543 38.4543 19.5 37.7812 19.5H1.21875C0.545653 19.5 0 18.9543 0 18.2813V15.8438C0 15.1707 0.545653 14.625 1.21875 14.625H5.40371L12.3612 3.02921C12.7075 2.45203 13.4561 2.26488 14.0333 2.61118ZM8.27172 36.5625L4.66677 21.9376H2.29752L6.01517 37.6015C6.21355 38.422 6.94795 39 7.79211 39H31.2079C32.0521 39 32.7865 38.422 32.9848 37.6015L36.7025 21.9376H34.3332L30.7283 36.5625H8.27172Z" fill="white"/>
</svg>
