<svg width="58" height="66" viewBox="0 0 58 66" fill="none" xmlns="http://www.w3.org/2000/svg">
<path d="M24.7273 55.4845C23.7976 54.4531 23.0179 53.5839 21.8183 52.2432C22.5831 51.7275 23.3778 51.3592 23.9326 50.7846C24.9223 49.7533 25.732 49.827 26.7216 50.7552C29.1358 53.0093 31.5949 55.2045 34.294 57.6649C31.37 60.5526 28.9109 63.0719 26.3018 65.4439C25.9269 65.7975 24.7723 65.6207 24.1425 65.3261C23.3478 64.943 22.733 64.2064 21.9533 63.5434C23.0929 62.2911 23.9926 61.2892 25.1172 60.0517C17.5298 59.0793 11.5619 55.5287 6.7036 50.3279C2.65501 45.9964 0.645715 40.5599 0.360814 34.6668C-0.238977 22.2027 6.4337 12.9651 17.185 8.4126C17.4848 8.94298 17.7398 9.5323 18.1146 10.0332C19.1193 11.4034 18.6844 12.0369 17.2299 12.8914C4.85924 20.1106 1.2605 32.2211 7.25841 43.4918C10.5123 49.5913 16.0004 53.8933 23.1529 55.4697C23.5577 55.5581 24.0076 55.4845 24.7273 55.4845Z" fill="#2D3436"/>
<path d="M33.2145 11.3002C34.1592 11.8747 35.1038 12.4493 35.7486 12.8324C35.6287 13.5838 35.6586 13.8048 35.5687 13.9079C33.0646 16.6188 33.0945 16.5746 30.4855 14.0552C28.7311 12.3609 26.8867 10.755 25.0423 9.14914C24.2776 8.47143 24.2026 7.97051 25.0124 7.26332C27.3216 5.21544 29.6757 3.21175 31.82 1.00181C33.1395 -0.338892 33.6943 0.721882 34.3991 1.47326C35.0589 2.18045 36.4834 2.76976 34.9539 4.00733C34.2491 4.56719 33.6194 5.21544 33.2295 5.5543C37.503 7.35172 42.0314 8.51562 45.7351 10.9466C61.9895 21.5838 61.5246 45.7311 45.1054 56.0884C45.0304 56.1326 44.9404 56.1768 44.8654 56.221C41.1467 58.5046 40.9518 58.4457 39.0925 54.4825C50.6984 48.7808 55.5417 39.5727 52.5128 27.0497C50.2935 17.8711 42.8861 12.1547 33.6044 10.7403C33.4844 10.9171 33.3495 11.1086 33.2145 11.3002Z" fill="#2D3436"/>
</svg>
