<svg width="58" height="66" viewBox="0 0 58 66" fill="none" xmlns="http://www.w3.org/2000/svg">
<path d="M0.558572 15.8217C2.32173 13.0585 5.41918 12.5576 8.10363 11.5719C13.5678 9.55207 18.4443 6.54653 23.2414 3.33092C23.845 2.92695 24.401 2.47451 25.0046 2.0867C28.9757 -0.450236 29.8652 -0.466396 33.6298 2.39371C39.7135 7.03129 46.5914 10.1015 53.5805 12.9616C57.0751 14.3835 57.7899 15.2884 57.6628 19.0373C57.3927 26.9874 56.535 34.8083 53.6917 42.3545C50.6101 50.5308 45.1141 56.4934 37.998 61.131C36.4889 62.1167 34.8687 62.9731 33.5027 64.1365C30.707 66.4795 27.8638 66.1079 25.0681 64.3789C19.6833 61.0502 14.8068 57.1559 10.5022 52.3568C5.11738 46.3457 3.08418 39.0904 1.59105 31.4796C1.2416 29.7506 1.23454 29.9318 0.637994 24.9925C0.139714 20.8668 0.32806 19.356 0.558572 15.8217ZM29.1504 61.438C47.8621 52.7122 54.0253 37.0059 53.3581 17.3406C44.8759 14.0442 36.616 10.3438 29.5634 4.51052C25.5288 6.98282 21.6371 9.40664 17.6978 11.7335C13.6632 14.1088 9.29496 15.7409 4.91088 17.276C4.03724 37.3129 10.9628 52.6799 29.1504 61.438Z" fill="#2D3436"/>
<path d="M41.3516 20.7314C42.7343 21.8007 43.942 22.7988 45.0971 24.2067C39.5138 30.3729 33.9829 36.4857 28.312 42.759C24.2339 39.3016 20.3833 36.0402 16.4102 32.6719C17.4603 31.2818 18.388 30.0343 19.4206 28.6799C22.5186 30.6937 24.864 33.5986 28.137 35.6125C32.6352 30.5333 36.9934 25.6502 41.3516 20.7314Z" fill="#2D3436"/>
</svg>
