<svg width="57" height="66" viewBox="0 0 57 66" fill="none" xmlns="http://www.w3.org/2000/svg">
<path d="M56.9872 37.512C56.9872 39.4259 57.0159 41.3538 56.9872 43.2677C56.9442 46.7578 55.0346 48.6998 51.4596 48.925C50.9714 48.9531 50.4833 48.9672 49.9951 48.9672C48.7747 48.9812 48.2435 49.6286 48.2435 50.7826C48.2435 52.021 48.2291 53.2453 48.2004 54.4837C48.0999 58.804 44.9269 61.9704 40.5048 62.0689C37.9922 62.1252 35.4796 62.1252 32.9671 62.0689C31.158 62.0266 29.6936 62.1955 28.4875 63.9265C27.1379 65.8685 23.3332 65.967 21.4667 64.4753C19.4566 62.871 19.1408 59.9017 20.7488 57.8048C22.6871 55.2858 26.7646 55.1592 28.7029 57.8189C29.7797 59.2825 30.957 59.6202 32.5938 59.578C35.1063 59.5076 37.6189 59.6061 40.1315 59.5358C43.5773 59.4513 45.5443 57.4812 45.6304 54.1178C45.6591 53.2312 45.6017 52.3306 45.6448 51.444C45.7022 50.093 45.4581 49.1079 43.7783 48.7702C43.1753 48.6435 42.4 47.5036 42.3856 46.8141C42.2708 40.5095 42.3138 34.1908 42.3138 27.8863C42.3138 26.5634 43.0317 25.8598 44.3813 25.8317C45.573 25.8176 46.7503 25.8317 47.942 25.7894C49.8228 25.7191 50.2823 25.2687 50.1387 23.383C49.5931 16.4311 46.6929 10.7035 40.7919 6.6787C32.6943 1.14813 21.3088 1.87991 14.1013 8.50815C9.72223 12.5329 7.1953 17.571 6.76458 23.4956C6.621 25.508 6.96558 25.7331 9.00435 25.8035C10.2535 25.8457 11.5169 25.8317 12.766 25.8317C14.0582 25.8317 14.7043 26.4649 14.7043 27.7315C14.7043 34.1064 14.7043 40.4954 14.7043 46.8703C14.7043 48.2072 14.0582 48.925 12.6799 48.925C10.0955 48.925 7.51117 49.0094 4.94117 48.8827C2.68704 48.7702 1.20821 47.4192 0.504693 45.3646C0.174469 44.4076 0.0452511 43.3522 0.0308935 42.3389C-0.0265366 39.0459 0.0165364 35.7529 0.00217889 32.4599C-0.0121786 29.9127 0.74877 27.8018 3.0029 26.2398C3.60592 25.8176 3.9505 24.8043 4.09408 24.0022C4.39558 22.3979 4.36687 20.7233 4.65402 19.119C6.29078 10.2672 16.0826 1.49995 25.5442 0.627438C41.0791 -0.807978 52.12 10.0702 52.7518 23.7911C52.8092 25.0577 53.0102 25.9865 54.3454 26.5916C56.1688 27.4078 56.9442 28.998 56.9729 30.94C57.0016 33.1213 56.9872 35.3167 56.9872 37.512ZM12.1343 37.4698C12.1343 35.0071 12.1056 32.5443 12.1343 30.0816C12.1487 28.8714 11.5887 28.3366 10.3683 28.3507C8.83206 28.3788 7.31016 28.2944 5.77391 28.3788C3.85 28.4773 2.75883 29.4061 2.7014 31.3341C2.58654 35.3729 2.58653 39.4118 2.71575 43.4366C2.77318 45.4349 3.92179 46.3215 5.98927 46.4059C7.38195 46.4622 8.77463 46.3778 10.1673 46.42C11.5887 46.4763 12.1774 45.843 12.1343 44.4498C12.1056 42.1278 12.1343 39.7918 12.1343 37.4698ZM44.8838 37.4557C44.8982 37.4557 44.8982 37.4557 44.8838 37.4557C44.8982 39.7918 44.9125 42.1138 44.8982 44.4498C44.8838 45.8149 45.5156 46.4622 46.937 46.4059C48.2578 46.3637 49.5931 46.4482 50.914 46.3778C52.9671 46.2793 53.9578 45.3223 53.9865 43.2537C54.0439 39.2711 54.0439 35.3026 53.9865 31.32C53.9578 29.392 52.9671 28.4632 50.9858 28.3647C49.7367 28.2944 48.4732 28.3225 47.2241 28.3507C45.2428 28.3929 44.97 28.6462 44.9269 30.6727C44.8551 32.9243 44.8838 35.19 44.8838 37.4557ZM27.1666 60.7038C27.1379 59.4795 26.1329 58.4803 24.9269 58.5085C23.649 58.5366 22.3856 59.6202 22.3569 60.7038C22.3281 61.9422 23.5772 62.9977 25.0417 62.9554C26.3195 62.9273 27.1954 61.9985 27.1666 60.7038Z" fill="#2D3436"/>
</svg>
