<svg width="26" height="26" viewBox="0 0 26 26" fill="none" xmlns="http://www.w3.org/2000/svg">
<path d="M16.7143 5.57143C16.7143 8.64844 14.2199 11.1429 11.1429 11.1429C8.06584 11.1429 5.57143 8.64844 5.57143 5.57143C5.57143 2.49441 8.06584 0 11.1429 0C14.2199 0 16.7143 2.49441 16.7143 5.57143Z" fill="#FBFAF8"/>
<path d="M0 20.4286C0 22.2857 1.85714 22.2857 1.85714 22.2857H11.6184C11.3104 21.4144 11.1429 20.4768 11.1429 19.5C11.1429 16.9861 12.2529 14.7314 14.0095 13.1993C13.1431 13.0709 12.1903 13 11.1429 13C1.85714 13 0 18.5714 0 20.4286Z" fill="#FBFAF8"/>
<path d="M18.3587 13.8534C18.6941 12.7155 20.3059 12.7155 20.6413 13.8534L20.7226 14.1294C20.9369 14.8565 21.7674 15.2005 22.4331 14.8379L22.6857 14.7003C23.7275 14.1328 24.8672 15.2725 24.2997 16.3143L24.1621 16.5669C23.7995 17.2326 24.1435 18.0631 24.8706 18.2774L25.1466 18.3587C26.2845 18.6941 26.2845 20.3059 25.1466 20.6413L24.8706 20.7226C24.1435 20.9369 23.7995 21.7674 24.1621 22.4331L24.2997 22.6857C24.8672 23.7275 23.7275 24.8672 22.6857 24.2997L22.4331 24.1621C21.7674 23.7995 20.9369 24.1435 20.7226 24.8706L20.6413 25.1466C20.3059 26.2845 18.6941 26.2845 18.3587 25.1466L18.2774 24.8706C18.0631 24.1435 17.2326 23.7995 16.5669 24.1621L16.3143 24.2997C15.2725 24.8672 14.1328 23.7275 14.7003 22.6857L14.8379 22.4331C15.2005 21.7674 14.8565 20.9369 14.1294 20.7226L13.8534 20.6413C12.7155 20.3059 12.7155 18.6941 13.8534 18.3587L14.1294 18.2774C14.8565 18.0631 15.2005 17.2326 14.8379 16.5669L14.7003 16.3143C14.1328 15.2725 15.2725 14.1328 16.3143 14.7003L16.5669 14.8379C17.2326 15.2005 18.0631 14.8565 18.2774 14.1294L18.3587 13.8534ZM22.2857 19.5C22.2857 17.9615 21.0385 16.7143 19.5 16.7143C17.9615 16.7143 16.7143 17.9615 16.7143 19.5C16.7143 21.0385 17.9615 22.2857 19.5 22.2857C21.0385 22.2857 22.2857 21.0385 22.2857 19.5Z" fill="#FBFAF8"/>
</svg>
