<svg width="19" height="23" viewBox="0 0 19 23" fill="none" xmlns="http://www.w3.org/2000/svg">
<g clip-path="url(#clip0_420_7584)">
<path d="M15.5617 22.669C15.1891 22.8783 14.803 22.9219 14.4108 22.922C11.1665 22.9234 7.92215 22.9228 4.67785 22.9223C3.22342 22.9221 2.47847 22.1533 2.38398 20.6279C2.2877 19.0736 2.14615 17.5225 2.02637 15.9699C1.94819 14.9563 1.87602 13.9422 1.79662 12.9288C1.68227 11.4692 1.56336 10.0099 1.4473 8.55041C1.40518 8.02072 1.36406 7.49093 1.32591 6.96091C1.31473 6.80561 1.28703 6.68379 1.13222 6.59826C0.223475 6.09619 -0.163356 5.23993 0.0589455 4.25559C0.268258 3.32876 1.03416 2.72574 2.03412 2.71662C2.92934 2.70845 3.8248 2.70571 4.71989 2.71959C4.97826 2.72359 5.05698 2.63351 5.05031 2.36638C5.02739 1.44805 5.32238 0.704562 6.13914 0.260494C6.46617 0.0826895 6.81837 0.0477591 7.17166 0.0461916C8.71401 0.0393448 10.2564 0.0455498 11.7988 0.0454608C12.4543 0.0454232 13.0413 0.214563 13.4892 0.763027C13.8247 1.17384 13.956 1.65484 13.9632 2.18453C13.9711 2.7712 13.8831 2.7142 14.4806 2.71544C15.3227 2.71718 16.1649 2.70901 17.0069 2.71754C17.9168 2.72676 18.6533 3.2652 18.9148 4.09415C19.2243 5.07513 18.8326 6.09682 17.9536 6.55552C17.7676 6.65257 17.6982 6.77538 17.6826 6.98432C17.5662 8.54654 17.4389 10.1079 17.3189 11.6698C17.1874 13.3807 17.0643 15.0924 16.9295 16.803C16.8167 18.2345 16.6974 19.6654 16.5709 21.0956C16.5087 21.799 16.1567 22.3117 15.5617 22.669ZM10.9933 6.78346C8.31668 6.78346 5.6401 6.78344 2.96351 6.78349C2.61704 6.78349 2.60975 6.7985 2.64504 7.16731C2.68233 7.55697 2.70833 7.94784 2.73835 8.33826C2.79697 9.10064 2.85326 9.86322 2.91359 10.6255C2.99525 11.657 3.08142 12.6881 3.16261 13.7197C3.22332 14.4912 3.27667 15.2634 3.33788 16.0348C3.41897 17.0567 3.50544 18.078 3.58778 19.0998C3.63422 19.676 3.65969 20.2547 3.72647 20.8282C3.78861 21.3619 3.97415 21.5117 4.48512 21.5119C7.84415 21.513 11.2032 21.5131 14.5622 21.5127C15.0316 21.5126 15.2574 21.317 15.3011 20.8278C15.3699 20.0571 15.416 19.2842 15.4736 18.5123C15.5319 17.7312 15.5906 16.9501 15.6526 16.1693C15.7323 15.1661 15.8171 14.1633 15.8968 13.16C15.9751 12.1749 16.0481 11.1893 16.1262 10.2041C16.2073 9.18188 16.2963 8.16028 16.3724 7.13762C16.3985 6.78614 16.3855 6.78375 16.0451 6.78365C14.3789 6.78318 12.7127 6.78347 10.9933 6.78346ZM17.5916 5.13406C17.7824 4.7583 17.7254 4.41279 17.443 4.22115C17.2834 4.11275 17.1048 4.12585 16.928 4.12584C11.9752 4.12572 7.02245 4.12575 2.0697 4.12591C1.99883 4.12591 1.92779 4.12468 1.85714 4.12931C1.59795 4.1463 1.43084 4.29566 1.34158 4.54459C1.18387 4.9844 1.50149 5.40116 2.00275 5.40132C7.00866 5.40298 12.0146 5.40192 17.0205 5.40339C17.2365 5.40345 17.4207 5.33923 17.5916 5.13406ZM9.13137 1.45036C8.42227 1.45045 7.71316 1.44763 7.00408 1.45178C6.61865 1.45403 6.37943 1.70507 6.3606 2.11341C6.35717 2.18799 6.35943 2.26288 6.35968 2.33762C6.36092 2.71336 6.36099 2.71505 6.71194 2.71524C8.52901 2.71625 10.3461 2.71785 12.1631 2.7158C12.7176 2.71517 12.6485 2.77075 12.6505 2.21152C12.6525 1.66944 12.4416 1.45035 11.9235 1.44977C11.0105 1.44874 10.0975 1.45006 9.13137 1.45036Z" fill="#8F1D1E"/>
<path d="M9.76273 8.13271C10.1155 8.32073 10.1783 8.64002 10.1783 8.99276C10.178 11.4305 10.1779 13.8682 10.1779 16.306C10.1779 17.3054 10.1776 18.3047 10.179 19.3041C10.1792 19.4543 10.1741 19.6025 10.1285 19.7467C10.0372 20.0361 9.79024 20.2341 9.5129 20.2383C9.23603 20.2425 8.96154 20.0279 8.88287 19.7298C8.85245 19.6145 8.83896 19.4906 8.83889 19.3706C8.83679 15.9055 8.83731 12.4403 8.83805 8.9752C8.83807 8.90071 8.84017 8.82532 8.85073 8.75186C8.92508 8.23434 9.25798 8.00128 9.76273 8.13271Z" fill="#8F1D1E"/>
<path d="M6.98487 19.2167C6.98855 19.3275 6.99337 19.4116 6.99251 19.4955C6.98838 19.9032 6.72904 20.214 6.37517 20.2375C6.02502 20.2609 5.7165 19.9723 5.68953 19.5667C5.62704 18.6269 5.57799 17.6861 5.52156 16.7458C5.43944 15.3773 5.35282 14.0091 5.27341 12.6404C5.21021 11.551 5.15562 10.4611 5.09537 9.37156C5.08611 9.20409 5.05929 9.0375 5.05378 8.87003C5.03941 8.43363 5.30612 8.09491 5.6758 8.0697C6.03747 8.04504 6.33477 8.36276 6.36019 8.80143C6.44816 10.3189 6.53334 11.8366 6.62461 13.3538C6.74166 15.2994 6.86357 17.2446 6.98487 19.2167Z" fill="#8F1D1E"/>
<path d="M12.2857 14.9533C12.39 13.251 12.494 11.5759 12.5964 9.9007C12.6181 9.54714 12.6376 9.19335 12.6514 8.83937C12.669 8.39141 12.9424 8.06876 13.3079 8.07429C13.7022 8.08025 13.9822 8.40258 13.9572 8.86545C13.8843 10.2156 13.7978 11.5649 13.7173 12.9146C13.674 13.6407 13.6326 14.367 13.5896 15.0932C13.5219 16.2382 13.4537 17.3833 13.3855 18.5283C13.3661 18.854 13.3438 19.1796 13.327 19.5054C13.3037 19.9543 13.0278 20.2539 12.647 20.2386C12.2816 20.224 12.0006 19.8844 12.02 19.4488C12.0515 18.7405 12.0976 18.0329 12.1401 17.3252C12.1869 16.5435 12.2365 15.762 12.2857 14.9533Z" fill="#8F1D1E"/>
</g>
<defs>
<clipPath id="clip0_420_7584">
<rect width="19" height="23" fill="white"/>
</clipPath>
</defs>
</svg>
