<svg width="24" height="25" viewBox="0 0 24 25" fill="none" xmlns="http://www.w3.org/2000/svg">
<g clip-path="url(#clip0_420_7581)">
<path d="M11.1972 18.4844C10.9968 18.7043 10.7842 18.8556 10.5133 18.93C8.65741 19.4393 6.80406 19.9578 4.94737 20.4642C4.31875 20.6356 3.86415 20.1704 4.03699 19.5213C4.4249 18.0647 4.87719 16.6235 5.21672 15.1561C5.46068 14.1017 5.98142 13.2929 6.75186 12.534C10.4262 8.91487 14.0554 5.24993 17.6958 1.59644C18.3814 0.908311 19.169 0.479263 20.166 0.500773C20.9383 0.517436 21.6123 0.787802 22.1809 1.29953C22.538 1.62096 22.8768 1.96487 23.2032 2.31772C24.3297 3.5357 24.252 5.42621 23.0319 6.64696C19.0932 10.5877 15.1536 14.5275 11.1972 18.4844ZM9.13392 15.7751C9.4745 16.1144 9.81528 16.4534 10.1556 16.7929C10.4976 17.134 10.4987 17.1355 10.8307 16.8029C13.9111 13.7178 16.9911 10.6324 20.0701 7.54589C20.1551 7.46074 20.2641 7.39145 20.2966 7.25909C20.2819 7.2306 20.2729 7.19512 20.2506 7.17277C19.296 6.21453 18.3389 5.25868 17.3859 4.29876C17.2606 4.17249 17.1578 4.1878 17.0453 4.30363C16.8819 4.47206 16.7194 4.64147 16.5534 4.80744C13.5815 7.78005 10.6108 10.754 7.63298 13.7207C7.42369 13.9292 7.38533 14.054 7.62591 14.2758C8.13506 14.7453 8.61086 15.2508 9.13392 15.7751ZM22.5515 4.43641C22.5686 3.93817 22.3772 3.52404 22.0346 3.17336C21.816 2.94969 21.5948 2.72851 21.3711 2.51002C20.5687 1.72639 19.572 1.74492 18.8002 2.55588C18.2574 3.12622 18.2564 3.12721 18.8044 3.67581C19.578 4.45026 20.3516 5.22463 21.13 5.9943C21.2156 6.07899 21.3147 6.26916 21.453 6.14219C21.951 5.68517 22.516 5.2627 22.5515 4.43641ZM6.68599 15.4375C6.33335 16.4703 6.0807 17.5314 5.7933 18.5827C5.78576 18.6103 5.80425 18.6449 5.82145 18.7299C6.90696 18.4298 7.9824 18.1324 9.06638 17.8327C8.26151 17.0083 7.49268 16.2209 6.68599 15.4375Z" fill="#354D5C"/>
<path d="M15.9563 23.2293C17.161 23.2293 18.3374 23.199 19.5114 23.2377C20.7622 23.2789 21.5008 22.3287 21.4752 21.2761C21.436 19.663 21.4651 18.0482 21.4657 16.4341C21.4658 16.3259 21.4605 16.2166 21.4737 16.1098C21.5137 15.7874 21.7783 15.5444 22.0861 15.5381C22.375 15.5321 22.648 15.7584 22.7098 16.0639C22.7271 16.1496 22.7267 16.2399 22.7267 16.3282C22.7275 18.021 22.7315 19.7138 22.7256 21.4066C22.7203 22.9619 21.7296 24.165 20.2185 24.4526C20.0091 24.4925 19.7898 24.4902 19.5751 24.4903C14.1098 24.4923 8.64429 24.4699 3.17916 24.5043C1.31229 24.5161 0.00296219 23.0443 0.0102845 21.3265C0.032097 16.2088 0.0167342 11.0909 0.0188551 5.97312C0.0194443 4.55157 0.822744 3.42713 2.13219 2.9961C2.46131 2.88776 2.80193 2.84982 3.14513 2.84918C4.7906 2.84615 6.43608 2.84844 8.08156 2.84916C8.15008 2.84919 8.21906 2.84787 8.28704 2.85489C8.68515 2.896 8.94446 3.17069 8.92409 3.52681C8.90438 3.87157 8.63381 4.11225 8.24208 4.11324C6.7925 4.11689 5.3429 4.113 3.89332 4.11693C3.52193 4.11793 3.15059 4.09842 2.77918 4.15462C1.9505 4.28003 1.32701 4.9588 1.28233 5.8043C1.27817 5.88287 1.2786 5.96173 1.2786 6.04046C1.27861 11.1386 1.27793 16.2367 1.27977 21.3348C1.28009 22.2034 1.69257 22.833 2.42406 23.1213C2.70645 23.2326 2.99889 23.2297 3.29215 23.2297C7.50374 23.2302 11.7153 23.2296 15.9563 23.2293Z" fill="#354D5C"/>
</g>
<defs>
<clipPath id="clip0_420_7581">
<rect width="24" height="24" fill="white" transform="translate(0 0.5)"/>
</clipPath>
</defs>
</svg>
