<svg width="26" height="27" viewBox="0 0 26 27" fill="none" xmlns="http://www.w3.org/2000/svg">
<path d="M3.11985 1.323C3.37765 1.28117 3.63985 1.36581 3.82452 1.55049L4.875 2.60096L5.92548 1.55049C6.24278 1.23318 6.75722 1.23318 7.07452 1.55049L8.125 2.60096L9.17548 1.55049C9.49278 1.23318 10.0072 1.23318 10.3245 1.55049L11.375 2.60096L12.4255 1.55049C12.7428 1.23318 13.2572 1.23318 13.5745 1.55049L14.625 2.60096L15.6755 1.55049C15.9928 1.23318 16.5072 1.23318 16.8245 1.55049L17.875 2.60096L18.9255 1.55049C19.2428 1.23318 19.7572 1.23318 20.0745 1.55049L21.125 2.60096L22.1755 1.55049C22.3602 1.36581 22.6223 1.28117 22.8801 1.323C23.1379 1.36484 23.3599 1.52805 23.4767 1.76165L24.2892 3.38665C24.3456 3.49947 24.375 3.62387 24.375 3.75001V23.25C24.375 23.3761 24.3456 23.5005 24.2892 23.6134L23.4767 25.2384C23.3599 25.472 23.1379 25.6352 22.8801 25.677C22.6223 25.7189 22.3602 25.6342 22.1755 25.4495L21.125 24.3991L20.0745 25.4495C19.7572 25.7668 19.2428 25.7668 18.9255 25.4495L17.875 24.3991L16.8245 25.4495C16.5072 25.7668 15.9928 25.7668 15.6755 25.4495L14.625 24.3991L13.5745 25.4495C13.2572 25.7668 12.7428 25.7668 12.4255 25.4495L11.375 24.3991L10.3245 25.4495C10.0072 25.7668 9.49278 25.7668 9.17548 25.4495L8.125 24.3991L7.07452 25.4495C6.75722 25.7668 6.24278 25.7668 5.92548 25.4495L4.875 24.3991L3.82452 25.4495C3.63985 25.6342 3.37765 25.7189 3.11985 25.677C2.86205 25.6352 2.64008 25.472 2.52328 25.2384L1.71078 23.6134C1.65437 23.5005 1.625 23.3761 1.625 23.25V3.75001C1.625 3.62387 1.65437 3.49947 1.71078 3.38665L2.52328 1.76165C2.64008 1.52805 2.86205 1.36484 3.11985 1.323ZM3.47259 3.49664L3.25 3.94182V23.0582L3.47259 23.5034L4.30048 22.6755C4.61778 22.3582 5.13222 22.3582 5.44952 22.6755L6.5 23.726L7.55048 22.6755C7.86778 22.3582 8.38222 22.3582 8.69952 22.6755L9.75 23.726L10.8005 22.6755C11.1178 22.3582 11.6322 22.3582 11.9495 22.6755L13 23.726L14.0505 22.6755C14.3678 22.3582 14.8822 22.3582 15.1995 22.6755L16.25 23.726L17.3005 22.6755C17.6178 22.3582 18.1322 22.3582 18.4495 22.6755L19.5 23.726L20.5505 22.6755C20.8678 22.3582 21.3822 22.3582 21.6995 22.6755L22.5274 23.5034L22.75 23.0582V3.94181L22.5274 3.49664L21.6995 4.32453C21.3822 4.64183 20.8678 4.64183 20.5505 4.32453L19.5 3.27406L18.4495 4.32453C18.1322 4.64183 17.6178 4.64183 17.3005 4.32453L16.25 3.27406L15.1995 4.32453C14.8822 4.64183 14.3678 4.64183 14.0505 4.32453L13 3.27406L11.9495 4.32453C11.6322 4.64183 11.1178 4.64183 10.8005 4.32453L9.75 3.27406L8.69952 4.32453C8.38222 4.64183 7.86778 4.64183 7.55048 4.32453L6.5 3.27406L5.44952 4.32453C5.13222 4.64183 4.61778 4.64183 4.30048 4.32453L3.47259 3.49664Z" fill="#FBFAF8"/>
<path d="M4.875 7.81251C4.875 7.36378 5.23877 7.00001 5.6875 7.00001H15.4375C15.8862 7.00001 16.25 7.36378 16.25 7.81251C16.25 8.26124 15.8862 8.62501 15.4375 8.62501H5.6875C5.23877 8.62501 4.875 8.26124 4.875 7.81251ZM4.875 11.0625C4.875 10.6138 5.23877 10.25 5.6875 10.25H15.4375C15.8862 10.25 16.25 10.6138 16.25 11.0625C16.25 11.5112 15.8862 11.875 15.4375 11.875H5.6875C5.23877 11.875 4.875 11.5112 4.875 11.0625ZM4.875 14.3125C4.875 13.8638 5.23877 13.5 5.6875 13.5H15.4375C15.8862 13.5 16.25 13.8638 16.25 14.3125C16.25 14.7612 15.8862 15.125 15.4375 15.125H5.6875C5.23877 15.125 4.875 14.7612 4.875 14.3125ZM4.875 17.5625C4.875 17.1138 5.23877 16.75 5.6875 16.75H15.4375C15.8862 16.75 16.25 17.1138 16.25 17.5625C16.25 18.0112 15.8862 18.375 15.4375 18.375H5.6875C5.23877 18.375 4.875 18.0112 4.875 17.5625Z" fill="#FBFAF8"/>
<path d="M17.875 7.81251C17.875 7.36378 18.2388 7.00001 18.6875 7.00001H20.3125C20.7612 7.00001 21.125 7.36378 21.125 7.81251C21.125 8.26124 20.7612 8.62501 20.3125 8.62501H18.6875C18.2388 8.62501 17.875 8.26124 17.875 7.81251ZM17.875 11.0625C17.875 10.6138 18.2388 10.25 18.6875 10.25H20.3125C20.7612 10.25 21.125 10.6138 21.125 11.0625C21.125 11.5112 20.7612 11.875 20.3125 11.875H18.6875C18.2388 11.875 17.875 11.5112 17.875 11.0625ZM17.875 14.3125C17.875 13.8638 18.2388 13.5 18.6875 13.5H20.3125C20.7612 13.5 21.125 13.8638 21.125 14.3125C21.125 14.7612 20.7612 15.125 20.3125 15.125H18.6875C18.2388 15.125 17.875 14.7612 17.875 14.3125ZM17.875 17.5625C17.875 17.1138 18.2388 16.75 18.6875 16.75H20.3125C20.7612 16.75 21.125 17.1138 21.125 17.5625C21.125 18.0112 20.7612 18.375 20.3125 18.375H18.6875C18.2388 18.375 17.875 18.0112 17.875 17.5625Z" fill="#FBFAF8"/>
</svg>
