<svg width="26" height="27" viewBox="0 0 26 27" fill="none" xmlns="http://www.w3.org/2000/svg">
<path d="M11.375 23.25C11.375 23.25 9.75 23.25 9.75 21.625C9.75 20 11.375 15.125 17.875 15.125C24.375 15.125 26 20 26 21.625C26 23.25 24.375 23.25 24.375 23.25H11.375Z" fill="#FBFAF8"/>
<path d="M17.875 13.5C20.5674 13.5 22.75 11.3174 22.75 8.625C22.75 5.93261 20.5674 3.75 17.875 3.75C15.1826 3.75 13 5.93261 13 8.625C13 11.3174 15.1826 13.5 17.875 13.5Z" fill="#FBFAF8"/>
<path d="M8.47659 23.25C8.24779 22.7884 8.125 22.2411 8.125 21.625C8.125 19.4224 9.22846 17.1572 11.2709 15.5799C10.3774 15.2942 9.33578 15.125 8.125 15.125C1.625 15.125 0 20 0 21.625C0 23.25 1.625 23.25 1.625 23.25H8.47659Z" fill="#FBFAF8"/>
<path d="M7.3125 13.5C9.55616 13.5 11.375 11.6812 11.375 9.4375C11.375 7.19384 9.55616 5.375 7.3125 5.375C5.06884 5.375 3.25 7.19384 3.25 9.4375C3.25 11.6812 5.06884 13.5 7.3125 13.5Z" fill="#FBFAF8"/>
</svg>
