<svg width="26" height="27" viewBox="0 0 26 27" fill="none" xmlns="http://www.w3.org/2000/svg">
<path fill-rule="evenodd" clip-rule="evenodd" d="M25.2339 5.33092C25.6966 5.516 26 5.96415 26 6.4625V20.5374C26 21.0358 25.6966 21.4839 25.2339 21.669L13.4526 26.3815C13.1621 26.4977 12.8379 26.4977 12.5474 26.3815L0.766118 21.669C0.303409 21.4839 0 21.0358 0 20.5374V6.4625C0 5.96415 0.303409 5.516 0.766118 5.33092L12.0947 0.799461L12.1012 0.796877L12.5474 0.618419C12.8379 0.502194 13.1621 0.502193 13.4526 0.618419L13.8989 0.796916L13.9053 0.799461L25.2339 5.33092ZM22.9998 6.18746L13 10.1874L3.00022 6.18746L1.625 6.73754V7.38754L12.1875 11.6125V24.4874L13 24.8124L13.8125 24.4874V11.6125L24.375 7.38754V6.73754L22.9998 6.18746Z" fill="#FBFAF8"/>
</svg>
