<svg width="27" height="19" viewBox="0 0 27 19" fill="none" xmlns="http://www.w3.org/2000/svg">
<path d="M27 9.5C27 9.5 21.9375 0.21875 13.5 0.21875C5.0625 0.21875 0 9.5 0 9.5C0 9.5 5.0625 18.7812 13.5 18.7812C21.9375 18.7812 27 9.5 27 9.5ZM1.97893 9.5C2.07499 9.35354 2.18454 9.1908 2.30727 9.0147C2.87239 8.20388 3.70627 7.12553 4.77918 6.05262C6.95424 3.87756 9.92354 1.90625 13.5 1.90625C17.0765 1.90625 20.0458 3.87756 22.2208 6.05262C23.2937 7.12553 24.1276 8.20388 24.6927 9.0147C24.8155 9.1908 24.925 9.35354 25.0211 9.5C24.925 9.64646 24.8155 9.8092 24.6927 9.9853C24.1276 10.7961 23.2937 11.8745 22.2208 12.9474C20.0458 15.1224 17.0765 17.0938 13.5 17.0938C9.92354 17.0938 6.95424 15.1224 4.77918 12.9474C3.70627 11.8745 2.87239 10.7961 2.30727 9.9853C2.18454 9.8092 2.07499 9.64646 1.97893 9.5Z" fill="#354D5C"/>
<path d="M13.5 5.28125C11.17 5.28125 9.28125 7.17005 9.28125 9.5C9.28125 11.83 11.17 13.7188 13.5 13.7188C15.83 13.7188 17.7188 11.83 17.7188 9.5C17.7188 7.17005 15.83 5.28125 13.5 5.28125ZM7.59375 9.5C7.59375 6.23807 10.2381 3.59375 13.5 3.59375C16.7619 3.59375 19.4062 6.23807 19.4062 9.5C19.4062 12.7619 16.7619 15.4062 13.5 15.4062C10.2381 15.4062 7.59375 12.7619 7.59375 9.5Z" fill="#354D5C"/>
</svg>
