<?xml version="1.0" encoding="utf-8"?>
<!-- Generator: Adobe Illustrator 24.0.1, SVG Export Plug-In . SVG Version: 6.00 Build 0)  -->
<svg version="1.1" id="Layer_1" xmlns="http://www.w3.org/2000/svg" xmlns:xlink="http://www.w3.org/1999/xlink" x="0px" y="0px"
	 viewBox="0 0 708.7 708.7" style="enable-background:new 0 0 708.7 708.7;" xml:space="preserve">
<style type="text/css">
	.st0{fill:#FFFFFF;}
</style>
<g>
	<g>
		<path class="st0" d="M163.7,167.9c128,0,256,0,384,0c0,128,0,256,0,384c-128,0-256,0-384,0C163.7,423.9,163.7,295.9,163.7,167.9z
			 M355.1,263.1C355.1,263.1,355.1,263.1,355.1,263.1c-42,0-84.1-0.1-126.1,0c-25,0-42.7,17.7-42.8,42.5c-0.1,47.1-0.1,94.3,0,141.4
			c0,24.5,18,42.5,42.6,42.5c84.3,0.1,168.6,0.1,252.9,0c24.6,0,42.5-17.9,42.6-42.5c0.1-47.1,0-94.3,0-141.4
			c0-3.7-0.3-7.5-1.2-11.1c-4.5-18.5-20.5-31.3-39.7-31.4C440.7,263,397.9,263.1,355.1,263.1z"/>
		<path d="M355.1,263.1c42.8,0,85.6-0.1,128.3,0c19.1,0.1,35.1,12.9,39.7,31.4c0.9,3.6,1.2,7.4,1.2,11.1c0.1,47.1,0.1,94.3,0,141.4
			c0,24.5-18,42.5-42.6,42.5c-84.3,0.1-168.6,0.1-252.9,0c-24.6,0-42.5-18-42.6-42.5c-0.1-47.1-0.1-94.3,0-141.4
			c0-24.8,17.8-42.5,42.8-42.5C271.1,263,313.1,263.1,355.1,263.1C355.1,263.1,355.1,263.1,355.1,263.1z M355.7,343
			c-48.8,0-97.5,0-146.3,0c-2.6,0-4.5,0-4.4,3.6c0.1,33.5-0.1,67.1,0.1,100.6c0.1,14.2,9.6,23.3,23.7,23.3c84.3,0,168.6,0,252.9,0
			c2,0,4,0,5.9-0.5c11.3-2.5,17.9-11.3,17.9-24.2c0-32.6,0-65.1,0-97.7c0-5.1,0-5.2-5.1-5.2C452.3,343,404,343,355.7,343z
			 M355.2,324.3c47.9,0,95.8,0,143.7,0c1.2,0,2.5-0.1,3.7,0c2.3,0.2,3.1-1,3-3.1c-0.1-6.4,0.2-12.7-0.3-19.1
			c-0.7-9-5.7-15.4-14.1-18.5c-3.5-1.3-7.5-1.7-11.3-1.7c-83-0.1-166.1-0.1-249.1-0.1c-1.7,0-3.5,0.1-5.2,0.2
			c-10.9,1-19.3,9.2-20.1,20.1c-0.4,5.6-0.3,11.2-0.3,16.8c0,5.3,0,5.3,5.4,5.3C258.7,324.3,306.9,324.3,355.2,324.3z"/>
		<path class="st0" d="M355.7,343c48.3,0,96.5,0,144.8,0c5,0,5.1,0,5.1,5.2c0,32.6,0,65.1,0,97.7c0,12.9-6.5,21.7-17.9,24.2
			c-1.9,0.4-4,0.5-5.9,0.5c-84.3,0-168.6,0-252.9,0c-14.1,0-23.6-9-23.7-23.3c-0.2-33.5,0-67.1-0.1-100.6c0-3.6,1.8-3.6,4.4-3.6
			C258.2,343,307,343,355.7,343z M435.2,421.8c-5.2,0-10.5-0.1-15.7,0c-5.5,0.1-9.4,3.7-9.6,8.9c-0.2,5.5,3.3,9.6,9,9.7
			c10.8,0.2,21.7,0.2,32.5,0c5.4-0.1,9.2-4.4,9.2-9.4c-0.1-5.2-4.2-9.1-9.8-9.2C445.6,421.7,440.4,421.8,435.2,421.8z"/>
		<path class="st0" d="M355.2,324.3c-48.3,0-96.5,0-144.8,0c-5.3,0-5.4,0-5.4-5.3c0-5.6-0.1-11.2,0.3-16.8
			c0.8-10.9,9.2-19.1,20.1-20.1c1.7-0.2,3.5-0.2,5.2-0.2c83,0,166.1,0,249.1,0.1c3.8,0,7.8,0.4,11.3,1.7c8.4,3.1,13.4,9.5,14.1,18.5
			c0.5,6.3,0.2,12.7,0.3,19.1c0,2.2-0.7,3.3-3,3.1c-1.2-0.1-2.5,0-3.7,0C450.9,324.3,403.1,324.3,355.2,324.3z"/>
		<path d="M435.2,421.8c5.2,0,10.5-0.1,15.7,0c5.6,0.1,9.7,4.1,9.8,9.2c0.1,5-3.8,9.3-9.2,9.4c-10.8,0.2-21.7,0.2-32.5,0
			c-5.7-0.1-9.3-4.3-9-9.7c0.2-5.2,4-8.8,9.6-8.9C424.7,421.7,429.9,421.8,435.2,421.8z"/>
	</g>
</g>
</svg>
