<svg version="1.1" id="Layer_1" xmlns="http://www.w3.org/2000/svg" xmlns:xlink="http://www.w3.org/1999/xlink" x="0px" y="0px"
	 width="100%" viewBox="0 0 720 1024" enable-background="new 0 0 720 1024" xml:space="preserve">
<path fill="#000000" opacity="1.000000" stroke="none" 
	d="
M476.378510,712.587463 
	C469.374817,716.320374 462.116638,717.097778 454.742920,717.100708 
	C393.755890,717.124878 332.768890,717.114929 271.781860,717.105469 
	C244.441238,717.101196 230.437561,703.390564 228.661255,676.187988 
	C226.851349,648.470642 224.190475,620.809265 221.938980,593.120361 
	C220.469238,575.045349 219.112625,556.961182 217.620071,538.888062 
	C215.470398,512.857849 213.235199,486.834686 211.053406,460.807098 
	C210.261581,451.360992 209.488724,441.913025 208.771454,432.461029 
	C208.561279,429.691559 208.040649,427.519165 205.130493,425.993866 
	C188.047745,417.040222 180.776031,401.770386 184.954895,384.216278 
	C188.889587,367.687897 203.287155,356.934082 222.084595,356.771362 
	C238.913116,356.625671 255.746109,356.576843 272.572144,356.824249 
	C277.428986,356.895630 278.908844,355.289215 278.783508,350.525360 
	C278.352570,334.148560 283.897949,320.889740 299.251404,312.970551 
	C305.398956,309.799713 312.019684,309.176788 318.661011,309.148834 
	C347.654236,309.026733 376.648346,309.137390 405.642151,309.135803 
	C417.964844,309.135132 428.999634,312.151459 437.419495,321.932373 
	C443.726135,329.258514 446.194977,337.836304 446.329163,347.282440 
	C446.477753,357.744629 444.824402,356.728210 456.055481,356.750305 
	C471.885345,356.781403 487.716522,356.635651 503.545013,356.787781 
	C520.649597,356.952179 534.495483,366.554382 539.411011,381.337189 
	C545.228149,398.831329 537.865784,417.051422 521.341431,425.231598 
	C517.845276,426.962341 516.540710,429.152405 516.247925,432.878448 
	C514.058411,460.738037 511.667175,488.581665 509.410645,516.436096 
	C506.938812,546.947693 504.624054,577.472168 502.090057,607.978455 
	C499.969666,633.505676 497.727814,659.023804 495.349579,684.528259 
	C494.179810,697.072937 487.562500,706.215698 476.378510,712.587463 
M390.500031,429.296570 
	C340.185181,429.296539 289.870331,429.296112 239.555496,429.296997 
	C233.042358,429.297119 232.905411,429.564728 233.568787,436.141754 
	C234.269684,443.090729 234.758560,450.061249 235.322830,457.023773 
	C236.424683,470.619507 237.482819,484.218872 238.617081,497.811859 
	C240.152115,516.207642 241.771927,534.596313 243.298065,552.992859 
	C244.439392,566.751160 245.442276,580.521057 246.592972,594.278564 
	C248.117157,612.501465 249.742798,630.715881 251.290604,648.936829 
	C252.163483,659.212463 252.642365,669.533813 253.897644,679.761047 
	C255.065811,689.278442 258.553650,691.949951 268.158936,691.952942 
	C331.302490,691.972534 394.446014,691.973999 457.589569,691.966858 
	C466.413666,691.965881 470.657410,688.477966 471.478790,679.753479 
	C472.772766,666.009460 473.639252,652.225403 474.722290,638.461121 
	C475.818390,624.531250 476.921326,610.601746 478.087555,596.677673 
	C479.585999,578.786438 481.180267,560.903259 482.678101,543.011963 
	C484.148956,525.443665 485.521790,507.867065 486.990875,490.298523 
	C488.515320,472.068207 490.187775,453.849854 491.617889,435.612335 
	C492.109406,429.344269 491.864716,429.301605 485.465668,429.299896 
	C454.143799,429.291473 422.821930,429.296661 390.500031,429.296570 
M514.536438,399.882355 
	C518.123169,393.181244 517.051331,387.019684 511.744080,383.602051 
	C508.742310,381.669006 505.385345,381.902588 502.061462,381.902496 
	C408.958740,381.900299 315.856049,381.900848 222.753326,381.903595 
	C221.421219,381.903625 220.085709,381.881714 218.757629,381.964325 
	C213.885315,382.267303 210.743988,384.930939 209.066025,389.370148 
	C206.101364,397.213379 212.072021,404.645538 221.494797,404.648499 
	C315.596832,404.677948 409.698853,404.659119 503.800873,404.685303 
	C507.860748,404.686432 511.324677,403.541168 514.536438,399.882355 
M355.500000,334.189850 
	C342.170227,334.191376 328.840149,334.141052 315.510773,334.215057 
	C308.265411,334.255249 303.768494,338.732178 303.414581,346.014160 
	C303.349976,347.344147 303.392517,348.679688 303.397156,350.012634 
	C303.420471,356.713257 303.421783,356.743378 310.019073,356.746826 
	C344.176636,356.764801 378.334259,356.793243 412.491760,356.756714 
	C422.914917,356.745575 421.614746,357.736633 421.653229,347.763702 
	C421.690552,338.096741 417.726715,334.189636 407.986267,334.179199 
	C390.824219,334.160828 373.662079,334.184418 355.500000,334.189850 
z"/>
<path fill="#000000" opacity="1.000000" stroke="none" 
	d="
M367.372406,453.361542 
	C374.003296,456.714569 375.184753,462.408539 375.183899,468.699097 
	C375.177948,512.172058 375.177460,555.645020 375.177399,599.117981 
	C375.177368,616.940186 375.172028,634.762451 375.197388,652.584656 
	C375.201202,655.262939 375.104767,657.905640 374.248962,660.477173 
	C372.531586,665.637512 367.889526,669.168457 362.676117,669.243835 
	C357.471497,669.319092 352.311523,665.491760 350.832703,660.175537 
	C350.260864,658.119812 350.007233,655.910339 350.005859,653.770691 
	C349.966522,591.975830 349.976166,530.180908 349.990204,468.386017 
	C349.990509,467.057495 350.029999,465.713135 350.228394,464.402985 
	C351.626190,455.174011 357.884064,451.017670 367.372406,453.361542 
z"/>
<path fill="#000000" opacity="1.000000" stroke="none" 
	d="
M315.152069,651.024048 
	C315.221313,652.999634 315.311798,654.498474 315.295746,655.996216 
	C315.217987,663.265259 310.342957,668.808167 303.690735,669.228394 
	C297.108643,669.644287 291.308960,664.498840 290.802002,657.266113 
	C289.627289,640.505859 288.705261,623.728149 287.644531,606.959717 
	C286.100769,582.554626 284.472565,558.154846 282.979797,533.746643 
	C281.791626,514.319641 280.765533,494.882751 279.632812,475.452271 
	C279.458740,472.465729 278.954620,469.495026 278.851013,466.508392 
	C278.580994,458.725922 283.594543,452.685547 290.543976,452.235931 
	C297.342590,451.796082 302.931274,457.462128 303.409271,465.285126 
	C305.062836,492.346741 306.664062,519.411682 308.379913,546.469299 
	C310.580078,581.164795 312.871887,615.854553 315.152069,651.024048 
z"/>
<path fill="#000000" opacity="1.000000" stroke="none" 
	d="
M414.791260,574.995361 
	C416.751648,544.637573 418.707214,514.765076 420.632935,484.890656 
	C421.039337,478.585510 421.405731,472.276245 421.666748,465.963715 
	C421.997040,457.975098 427.137085,452.221161 434.007446,452.319733 
	C441.419312,452.426025 446.683533,458.174164 446.213531,466.428833 
	C444.842712,490.505981 443.216064,514.568542 441.703247,538.637695 
	C440.889343,551.587524 440.110352,564.539490 439.302887,577.489746 
	C438.029724,597.909973 436.747345,618.329529 435.465637,638.749207 
	C435.101074,644.557739 434.682800,650.363342 434.365204,656.174377 
	C433.927704,664.179321 428.742096,669.521606 421.582886,669.249512 
	C414.713959,668.988464 409.431793,662.933777 409.796692,655.164246 
	C410.389923,642.533081 411.256500,629.914429 412.053619,617.293396 
	C412.934082,603.353943 413.866211,589.417664 414.791260,574.995361 
z"/>
</svg>