<svg version="1.1" id="Layer_1" xmlns="http://www.w3.org/2000/svg" xmlns:xlink="http://www.w3.org/1999/xlink" x="0px" y="0px"
	 width="100%" viewBox="0 0 720 1024" enable-background="new 0 0 720 1024" xml:space="preserve">
<path fill="#000000" opacity="1.000000" stroke="none" 
	d="
M375.783691,578.809082 
	C372.801025,582.088013 369.637482,584.343689 365.606293,585.452087 
	C337.989899,593.045349 310.411102,600.775574 282.782745,608.324707 
	C273.428619,610.880676 266.663879,603.944763 269.235901,594.268250 
	C275.008087,572.552124 281.738464,551.067444 286.790710,529.191040 
	C290.421082,513.471375 298.169800,501.413818 309.634369,490.100494 
	C364.310913,436.145477 418.314362,381.507843 472.484802,327.040955 
	C482.687683,316.782257 494.407898,310.385925 509.243805,310.706604 
	C520.735657,310.955017 530.765198,314.985687 539.225342,322.614594 
	C544.539429,327.406494 549.580994,332.533600 554.437561,337.794006 
	C571.201416,355.951843 570.044434,384.135895 551.888367,402.335114 
	C493.278809,461.083923 434.655609,519.819092 375.783691,578.809082 
M345.080566,538.419617 
	C350.148590,543.476990 355.219452,548.531494 360.283844,553.592529 
	C365.373108,558.678345 365.388519,558.699402 370.329437,553.741638 
	C416.166687,507.748169 461.999756,461.750488 507.816345,415.736450 
	C509.080292,414.467010 510.702393,413.434082 511.187195,411.460754 
	C510.967682,411.036011 510.833344,410.507080 510.502136,410.173981 
	C496.296417,395.888367 482.054779,381.638397 467.874481,367.327698 
	C466.009216,365.445282 464.478943,365.673462 462.806152,367.400299 
	C460.373779,369.911285 457.955658,372.436798 455.486420,374.911194 
	C411.262421,419.227356 367.057953,463.563110 322.745880,507.790985 
	C319.631500,510.899475 319.060760,512.760315 322.640717,516.067566 
	C330.217041,523.066895 337.297180,530.603271 345.080566,538.419617 
M544.740112,369.379730 
	C544.994507,361.951935 542.146912,355.778015 537.048035,350.549957 
	C533.796021,347.215454 530.504211,343.918182 527.174927,340.660767 
	C515.234741,328.978333 500.404266,329.254547 488.919098,341.344482 
	C480.841644,349.847260 480.826782,349.862061 488.981384,358.040680 
	C500.492859,369.586212 512.005615,381.130768 523.587891,392.605072 
	C524.862305,393.867645 526.335938,396.702789 528.394653,394.809906 
	C535.804932,387.996521 544.212524,381.698334 544.740112,369.379730 
M308.654236,533.386597 
	C303.406769,548.783447 299.647247,564.602722 295.370514,580.274841 
	C295.258331,580.685974 295.533447,581.202881 295.789459,582.469788 
	C311.942322,577.995544 327.945343,573.562744 344.075500,569.094788 
	C332.098663,556.804443 320.658081,545.064453 308.654236,533.386597 
z"/>
<path fill="#000000" opacity="1.000000" stroke="none" 
	d="
M430.000000,695.018311 
	C450.498383,695.018738 470.513611,694.504700 490.490509,695.159607 
	C511.772858,695.857300 524.339233,679.767639 523.903809,661.943909 
	C523.236511,634.629211 523.732422,607.286011 523.742798,579.954895 
	C523.743469,578.122986 523.653625,576.271240 523.878906,574.462830 
	C524.558838,569.003906 529.060791,564.890259 534.298767,564.782837 
	C539.214111,564.682007 543.858093,568.513245 544.909607,573.685608 
	C545.204834,575.137817 545.197571,576.667236 545.198242,578.161377 
	C545.211121,606.825684 545.279175,635.490295 545.179749,664.154297 
	C545.088440,690.490417 528.232483,710.862732 502.520264,715.732666 
	C498.957367,716.407532 495.226868,716.369385 491.573853,716.370728 
	C398.581421,716.404297 305.586639,716.024353 212.597870,716.607849 
	C180.833282,716.807129 158.555161,691.885315 158.679749,662.797607 
	C159.050888,576.139587 158.789490,489.478973 158.825577,402.819366 
	C158.835602,378.748230 172.503693,359.708038 194.783829,352.409424 
	C200.383789,350.574982 206.179337,349.932465 212.018829,349.921753 
	C240.016434,349.870422 268.014221,349.909210 296.011932,349.921387 
	C297.177765,349.921906 298.351471,349.899506 299.508087,350.018372 
	C306.281921,350.714478 310.694031,355.365814 310.347534,361.395966 
	C310.012146,367.233765 305.408478,371.309265 298.743195,371.325989 
	C274.078705,371.387787 249.413864,371.321838 224.749374,371.388397 
	C218.430206,371.405457 212.111740,371.074951 205.792252,372.026703 
	C191.692322,374.150299 181.083740,385.643890 180.323456,399.960724 
	C180.252808,401.291077 180.260071,402.626465 180.260071,403.959534 
	C180.260132,490.285828 180.248657,576.612122 180.279999,662.938416 
	C180.285339,677.647217 187.303680,688.307556 199.749954,693.189026 
	C204.554810,695.073547 209.530716,695.024963 214.520386,695.025574 
	C286.180267,695.033997 357.840118,695.023865 430.000000,695.018311 
z"/>
</svg>