<svg xmlns="http://www.w3.org/2000/svg" xmlns:xlink="http://www.w3.org/1999/xlink" width="250" zoomAndPan="magnify" viewBox="0 0 187.5 187.499992" height="250" preserveAspectRatio="xMidYMid meet" version="1.2"><defs><clipPath id="6ff3aed7f8"><path d="M 56.101562 69 L 130.902344 69 L 130.902344 118.320312 L 56.101562 118.320312 Z M 56.101562 69 "/></clipPath></defs><g id="d221d3f32e"><g clip-rule="nonzero" clip-path="url(#6ff3aed7f8)"><path style=" stroke:none;fill-rule:nonzero;fill:#000000;fill-opacity:1;" d="M 126.617188 69.078125 L 60.324219 69.078125 C 60.042969 69.078125 59.765625 69.105469 59.492188 69.160156 C 59.21875 69.214844 58.953125 69.296875 58.695312 69.402344 C 58.4375 69.511719 58.195312 69.640625 57.960938 69.796875 C 57.730469 69.953125 57.515625 70.132812 57.320312 70.328125 C 57.121094 70.527344 56.945312 70.742188 56.789062 70.976562 C 56.636719 71.210938 56.503906 71.457031 56.398438 71.714844 C 56.292969 71.972656 56.210938 72.242188 56.15625 72.515625 C 56.101562 72.792969 56.074219 73.070312 56.074219 73.351562 L 56.074219 113.988281 C 56.074219 114.265625 56.101562 114.546875 56.15625 114.820312 C 56.210938 115.09375 56.292969 115.363281 56.398438 115.621094 C 56.503906 115.878906 56.636719 116.125 56.789062 116.359375 C 56.945312 116.59375 57.121094 116.808594 57.320312 117.007812 C 57.515625 117.207031 57.730469 117.382812 57.960938 117.539062 C 58.195312 117.695312 58.4375 117.824219 58.695312 117.933594 C 58.953125 118.042969 59.21875 118.121094 59.492188 118.175781 C 59.765625 118.230469 60.042969 118.257812 60.324219 118.261719 L 126.617188 118.261719 C 126.894531 118.261719 127.171875 118.230469 127.445312 118.175781 C 127.71875 118.121094 127.984375 118.042969 128.242188 117.933594 C 128.5 117.828125 128.742188 117.695312 128.976562 117.539062 C 129.207031 117.382812 129.421875 117.207031 129.617188 117.007812 C 129.816406 116.808594 129.992188 116.59375 130.148438 116.359375 C 130.300781 116.125 130.433594 115.878906 130.539062 115.621094 C 130.648438 115.363281 130.726562 115.09375 130.78125 114.820312 C 130.835938 114.546875 130.863281 114.265625 130.863281 113.988281 L 130.863281 73.351562 C 130.863281 73.070312 130.835938 72.792969 130.78125 72.515625 C 130.726562 72.242188 130.648438 71.972656 130.539062 71.714844 C 130.433594 71.457031 130.300781 71.210938 130.148438 70.976562 C 129.992188 70.742188 129.816406 70.527344 129.617188 70.328125 C 129.421875 70.132812 129.207031 69.953125 128.976562 69.796875 C 128.742188 69.640625 128.5 69.511719 128.242188 69.402344 C 127.984375 69.296875 127.71875 69.214844 127.445312 69.160156 C 127.171875 69.105469 126.894531 69.078125 126.617188 69.078125 Z M 105.222656 93.667969 L 128.5625 72.746094 C 128.628906 72.941406 128.660156 73.144531 128.664062 73.351562 L 128.664062 113.988281 C 128.660156 114.195312 128.628906 114.394531 128.5625 114.59375 Z M 126.613281 71.289062 C 126.691406 71.292969 126.769531 71.300781 126.847656 71.3125 L 94.824219 100.019531 C 94.636719 100.1875 94.425781 100.316406 94.191406 100.40625 C 93.957031 100.496094 93.714844 100.542969 93.464844 100.542969 C 93.210938 100.542969 92.96875 100.496094 92.734375 100.40625 C 92.5 100.316406 92.289062 100.1875 92.101562 100.019531 L 60.089844 71.3125 C 60.167969 71.300781 60.246094 71.292969 60.324219 71.289062 Z M 58.375 114.59375 C 58.3125 114.394531 58.277344 114.195312 58.273438 113.988281 L 58.273438 73.351562 C 58.277344 73.144531 58.3125 72.941406 58.375 72.746094 L 81.714844 93.667969 Z M 60.324219 116.046875 C 60.246094 116.042969 60.167969 116.035156 60.089844 116.023438 L 83.367188 95.152344 L 90.644531 101.671875 C 91.03125 102.023438 91.46875 102.289062 91.957031 102.476562 C 92.445312 102.664062 92.949219 102.757812 93.46875 102.757812 C 93.988281 102.757812 94.496094 102.664062 94.980469 102.476562 C 95.46875 102.289062 95.90625 102.023438 96.292969 101.671875 L 103.570312 95.152344 L 126.847656 116.023438 C 126.769531 116.035156 126.691406 116.042969 126.613281 116.046875 Z M 60.324219 116.046875 "/></g></g></svg>