<svg xmlns="http://www.w3.org/2000/svg" xmlns:xlink="http://www.w3.org/1999/xlink" width="250" zoomAndPan="magnify" viewBox="0 0 187.5 187.499992" height="250" preserveAspectRatio="xMidYMid meet" version="1.2"><defs><clipPath id="4846b05b72"><path d="M 65.28125 56.101562 L 121.378906 56.101562 L 121.378906 130.902344 L 65.28125 130.902344 Z M 65.28125 56.101562 "/></clipPath></defs><g id="70a9552e37"><g clip-rule="nonzero" clip-path="url(#4846b05b72)"><path style=" stroke:none;fill-rule:nonzero;fill:#000000;fill-opacity:1;" d="M 112.738281 85.171875 L 112.222656 85.171875 L 112.222656 75.101562 C 112.222656 64.625 103.75 56.101562 93.332031 56.101562 C 82.914062 56.101562 74.4375 64.625 74.4375 75.105469 L 74.4375 85.171875 L 73.921875 85.171875 C 69.164062 85.171875 65.289062 89.066406 65.289062 93.859375 L 65.289062 122.214844 C 65.289062 127.007812 69.164062 130.902344 73.921875 130.902344 L 112.738281 130.902344 C 117.496094 130.902344 121.371094 127.007812 121.371094 122.214844 L 121.371094 93.859375 C 121.375 89.066406 117.5 85.171875 112.738281 85.171875 Z M 76.105469 75.105469 C 76.105469 65.546875 83.832031 57.777344 93.332031 57.777344 C 102.828125 57.777344 110.554688 65.546875 110.554688 75.105469 L 110.554688 85.171875 L 104.195312 85.171875 L 104.195312 75.195312 C 104.195312 69.167969 99.320312 64.261719 93.332031 64.261719 C 87.339844 64.261719 82.464844 69.167969 82.464844 75.195312 L 82.464844 85.171875 L 76.105469 85.171875 Z M 102.53125 85.171875 L 84.128906 85.171875 L 84.128906 75.191406 C 84.128906 70.089844 88.257812 65.933594 93.332031 65.933594 C 98.402344 65.933594 102.53125 70.085938 102.53125 75.191406 Z M 119.703125 122.214844 C 119.703125 126.078125 116.578125 129.226562 112.738281 129.226562 L 73.921875 129.226562 C 70.082031 129.226562 66.953125 126.078125 66.953125 122.214844 L 66.953125 93.859375 C 66.953125 89.992188 70.078125 86.84375 73.921875 86.84375 L 112.738281 86.84375 C 116.578125 86.84375 119.703125 89.992188 119.703125 93.859375 Z M 119.703125 122.214844 "/></g><path style=" stroke:none;fill-rule:nonzero;fill:#000000;fill-opacity:1;" d="M 98.273438 110.050781 C 98.273438 110.046875 98.273438 110.046875 98.273438 110.046875 C 99.777344 108.34375 100.300781 105.980469 99.667969 103.730469 C 99.023438 101.414062 97.230469 99.710938 94.878906 99.175781 C 92.863281 98.714844 90.796875 99.175781 89.214844 100.441406 C 87.632812 101.710938 86.726562 103.605469 86.726562 105.640625 C 86.726562 107.605469 87.582031 109.460938 89.074219 110.730469 C 89.382812 110.988281 89.488281 111.363281 89.355469 111.679688 L 87.6875 115.648438 C 87.40625 116.320312 87.476562 117.085938 87.875 117.691406 C 88.277344 118.300781 88.949219 118.664062 89.675781 118.664062 L 96.988281 118.664062 C 97.714844 118.664062 98.386719 118.300781 98.785156 117.691406 C 99.1875 117.082031 99.257812 116.320312 98.976562 115.644531 L 97.328125 111.726562 C 97.179688 111.378906 97.292969 110.972656 97.613281 110.703125 C 97.847656 110.5 98.066406 110.28125 98.273438 110.050781 Z M 95.789062 112.382812 L 97.441406 116.296875 C 97.53125 116.519531 97.441406 116.699219 97.398438 116.765625 C 97.355469 116.828125 97.226562 116.984375 96.988281 116.984375 L 89.675781 116.984375 C 89.4375 116.984375 89.308594 116.828125 89.265625 116.765625 C 89.222656 116.699219 89.132812 116.519531 89.222656 116.300781 L 90.890625 112.335938 C 91.308594 111.339844 91.011719 110.179688 90.152344 109.449219 C 89.035156 108.496094 88.394531 107.109375 88.394531 105.640625 C 88.394531 104.121094 89.070312 102.703125 90.257812 101.753906 C 91.136719 101.042969 92.222656 100.675781 93.34375 100.675781 C 93.730469 100.675781 94.117188 100.71875 94.507812 100.808594 C 96.253906 101.210938 97.585938 102.46875 98.066406 104.183594 C 98.550781 105.910156 98.171875 107.640625 97.027344 108.941406 C 96.875 109.109375 96.710938 109.273438 96.535156 109.425781 C 95.660156 110.171875 95.363281 111.359375 95.789062 112.382812 Z M 95.789062 112.382812 "/></g></svg>