<svg version="1.1" id="Layer_1" xmlns="http://www.w3.org/2000/svg" xmlns:xlink="http://www.w3.org/1999/xlink" x="0px" y="0px"
	 width="100%" viewBox="0 0 720 1024" enable-background="new 0 0 720 1024" xml:space="preserve">
<path fill="#000000" opacity="1.000000" stroke="none" 
	d="
M403.254333,389.745667 
	C425.097748,411.513336 446.671814,433.050507 468.294128,454.539185 
	C470.537842,456.769043 471.998199,459.211029 471.971008,462.428314 
	C471.871124,474.255249 471.890259,486.084778 471.628693,497.908081 
	C471.497894,503.818085 470.441376,504.615906 464.509888,503.285217 
	C458.516022,501.940521 452.695587,499.926178 446.394318,500.191132 
	C443.351074,500.319092 442.678345,497.942474 442.692627,495.344635 
	C442.718292,490.679443 442.725616,486.014069 442.719971,481.348785 
	C442.710236,473.285889 442.703583,473.290894 434.387207,473.293671 
	C417.392120,473.299316 400.397034,473.305023 383.401947,473.298553 
	C375.113007,473.295380 374.891357,473.073639 374.888977,464.991516 
	C374.883881,447.496582 374.729950,429.999298 374.987091,412.508148 
	C375.059418,407.590271 373.766663,405.789093 368.579651,405.810699 
	C348.426117,405.894623 328.270996,405.512909 308.115997,405.378937 
	C301.296234,405.333588 294.472290,405.658325 287.655396,405.533112 
	C282.678406,405.441711 282.179626,408.212799 282.182831,412.255493 
	C282.230011,471.571411 282.167419,530.887390 282.137482,590.203369 
	C282.133667,597.701111 282.156830,605.198914 282.185913,612.696594 
	C282.214172,619.986816 282.224579,620.017639 289.760223,620.016846 
	C308.754700,620.014648 327.750580,620.100403 346.742767,619.881531 
	C351.748566,619.823914 354.791840,621.925903 356.048920,626.414307 
	C357.825958,632.759155 361.408936,638.142090 364.650177,643.702454 
	C366.910309,647.579712 366.443481,648.818481 361.907104,649.222412 
	C360.914429,649.310852 359.909119,649.268982 358.909637,649.268005 
	C333.583679,649.242371 308.249939,648.819397 282.934448,649.320312 
	C265.006470,649.675049 252.669373,635.318787 253.293457,619.047058 
	C253.913269,602.886841 253.670105,586.731384 253.687271,570.574951 
	C253.735947,524.754883 253.693451,478.934631 253.595932,433.114685 
	C253.572906,422.299835 252.486542,411.495667 253.625534,400.667114 
	C254.124252,395.925629 256.264679,392.050415 259.412628,388.829956 
	C267.458160,380.599213 276.672974,376.247070 288.918274,376.544952 
	C319.724335,377.294342 350.562469,376.935425 381.384308,376.650818 
	C387.550781,376.593903 392.377655,377.937927 396.278961,382.802155 
	C398.245697,385.254333 400.741943,387.281830 403.254333,389.745667 
z"/>
<path fill="#000000" opacity="1.000000" stroke="none" 
	d="
M388.022217,634.927917 
	C375.940979,616.939819 371.981995,598.014526 377.222656,576.953369 
	C381.179535,561.051453 389.552155,548.463562 402.324341,538.752808 
	C417.985901,526.845215 436.142456,523.136414 455.120300,526.350830 
	C476.853088,530.031799 493.942780,541.720825 503.973328,561.708191 
	C511.512115,576.730408 514.429321,592.718506 509.849762,609.582397 
	C508.054016,616.195007 506.083740,622.636841 502.914398,628.698120 
	C501.487305,631.427490 502.636230,633.363037 504.604340,635.290527 
	C510.656525,641.217957 516.500122,647.362915 522.661377,653.172485 
	C525.437927,655.790527 525.301819,657.546082 522.593994,660.071289 
	C518.101318,664.260864 513.785767,668.663452 509.660858,673.216553 
	C506.631805,676.560120 504.188904,675.422424 501.693451,672.840698 
	C496.500488,667.468140 491.305695,662.095825 486.206451,656.634888 
	C483.163605,653.376099 480.472748,652.335632 475.816650,654.665771 
	C457.947723,663.607971 439.155640,665.042542 420.190094,658.715454 
	C407.164948,654.370178 396.295959,646.571777 388.022217,634.927917 
M459.720123,630.335876 
	C477.370148,622.073547 488.722504,601.336731 480.358337,579.898865 
	C474.726593,565.464294 464.062744,557.141846 449.562500,554.657593 
	C426.142944,550.645142 403.958069,570.669861 403.865814,594.494385 
	C403.786957,614.860657 422.237793,634.294067 443.083221,633.897705 
	C448.753937,633.789856 453.857941,632.479614 459.720123,630.335876 
z"/>
</svg>