<svg width="29" height="20" viewBox="0 0 29 20" fill="none" xmlns="http://www.w3.org/2000/svg">
<path d="M14.1945 0.253728C17.7538 0.253728 21.313 0.24534 24.8639 0.253728C26.4523 0.262116 27.7828 1.33575 28.1654 2.8875C28.2402 3.18946 28.2652 3.50819 28.2652 3.81854C28.2735 7.7692 28.2735 11.7282 28.2652 15.6789C28.2652 17.7339 26.7683 19.2437 24.7226 19.2437C17.7122 19.2521 10.7018 19.2521 3.69143 19.2437C1.64569 19.2437 0.157131 17.7339 0.148815 15.6789C0.140499 11.7282 0.140499 7.7692 0.148815 3.81854C0.148815 1.73837 1.62906 0.253728 3.70806 0.253728C7.20909 0.24534 10.7018 0.253728 14.1945 0.253728ZM14.2444 6.95558C10.1862 6.95558 6.13633 6.95558 2.07812 6.95558C1.86191 6.95558 1.7039 6.95558 1.71222 7.25754C1.72054 10.0675 1.70391 12.8858 1.72054 15.6957C1.72885 16.8867 2.51887 17.65 3.69143 17.65C10.7018 17.65 17.7122 17.65 24.7226 17.65C24.8889 17.65 25.0552 17.65 25.2132 17.6081C26.1529 17.3984 26.7018 16.6603 26.7018 15.5782C26.7018 12.8438 26.7018 10.1178 26.7018 7.38336C26.7018 6.95558 26.7018 6.94719 26.2776 6.94719C22.2777 6.95558 18.261 6.95558 14.2444 6.95558ZM14.2028 5.38706C18.1862 5.38706 22.1695 5.38706 26.1529 5.38706C26.2527 5.38706 26.3608 5.37867 26.4606 5.38706C26.6519 5.40384 26.7184 5.30318 26.7101 5.12704C26.7018 4.59022 26.7267 4.06179 26.6851 3.52497C26.6269 2.77007 26.2111 2.23325 25.5126 1.97323C25.2215 1.86419 24.8889 1.83063 24.5729 1.83063C17.6706 1.82225 10.76 1.82225 3.85775 1.82225C3.71637 1.82225 3.56669 1.83063 3.42531 1.83902C2.51887 1.9229 1.82033 2.6107 1.7538 3.52497C1.72054 3.99469 1.72885 4.4644 1.72885 4.93412C1.72885 5.37867 1.72885 5.37867 2.17792 5.37867C6.17791 5.38706 10.1862 5.38706 14.2028 5.38706Z" fill="black"/>
<path d="M20.8559 13.5651C21.2883 13.5651 21.729 13.5567 22.1615 13.5651C22.6272 13.5735 22.9681 13.909 22.9764 14.3368C22.9848 14.7562 22.6604 15.1169 22.2114 15.1253C21.3132 15.142 20.4068 15.142 19.5087 15.1253C19.0347 15.1169 18.7353 14.7646 18.7602 14.3116C18.7769 13.8755 19.0929 13.5735 19.5586 13.5651C19.9827 13.5567 20.4151 13.5651 20.8559 13.5651Z" fill="black"/>
</svg>
