<svg width="90" height="17" viewBox="0 0 90 17" fill="none" xmlns="http://www.w3.org/2000/svg">
<path d="M8.6084 1.20508C8.76979 0.918733 9.1657 0.90074 9.35645 1.15137L9.3916 1.20508L11.3232 4.62988C11.4588 4.8704 11.6923 5.04012 11.9629 5.09473L15.8174 5.87305C16.1607 5.94253 16.2965 6.36014 16.0596 6.61816L13.3984 9.51367C13.2116 9.71692 13.1216 9.99137 13.1533 10.2656L13.6055 14.1719C13.6455 14.52 13.2894 14.7787 12.9707 14.6328L9.39551 12.9961C9.17581 12.8955 8.92708 12.8826 8.7002 12.958L8.60449 12.9961L5.0293 14.6328C4.71062 14.7787 4.35449 14.52 4.39453 14.1719L4.84668 10.2656C4.87442 10.0256 4.80888 9.78525 4.66699 9.59277L4.60156 9.51367L1.94043 6.61816C1.71823 6.37615 1.82382 5.99354 2.12109 5.88965L2.18262 5.87305L6.03711 5.09473C6.30775 5.04012 6.54119 4.8704 6.67676 4.62988L8.6084 1.20508Z" fill="#F3B021" stroke="#2D3436" stroke-width="0.5"/>
<path d="M26.6084 1.20508C26.7698 0.918733 27.1657 0.90074 27.3564 1.15137L27.3916 1.20508L29.3232 4.62988C29.4588 4.8704 29.6923 5.04012 29.9629 5.09473L33.8174 5.87305C34.1607 5.94253 34.2965 6.36014 34.0596 6.61816L31.3984 9.51367C31.2116 9.71692 31.1216 9.99137 31.1533 10.2656L31.6055 14.1719C31.6455 14.52 31.2894 14.7787 30.9707 14.6328L27.3955 12.9961C27.1758 12.8955 26.9271 12.8826 26.7002 12.958L26.6045 12.9961L23.0293 14.6328C22.7106 14.7787 22.3545 14.52 22.3945 14.1719L22.8467 10.2656C22.8744 10.0256 22.8089 9.78525 22.667 9.59277L22.6016 9.51367L19.9404 6.61816C19.7182 6.37615 19.8238 5.99354 20.1211 5.88965L20.1826 5.87305L24.0371 5.09473C24.3077 5.04012 24.5412 4.8704 24.6768 4.62988L26.6084 1.20508Z" fill="#F3B021" stroke="#2D3436" stroke-width="0.5"/>
<path d="M44.7822 0.895508C44.8779 0.725889 45.1221 0.725889 45.2178 0.895508L47.3682 4.70996C47.4752 4.89978 47.6594 5.03405 47.873 5.07715L52.165 5.94336C52.3558 5.98197 52.4316 6.21408 52.2998 6.35742L49.3359 9.58105C49.1886 9.74149 49.1185 9.95841 49.1436 10.1748L49.6455 14.5244C49.6677 14.7176 49.4709 14.861 49.2939 14.7803L45.3125 12.958C45.1143 12.8673 44.8857 12.8673 44.6875 12.958L40.7061 14.7803C40.5291 14.861 40.3323 14.7176 40.3545 14.5244L40.8564 10.1748C40.8783 9.98544 40.8277 9.79545 40.7158 9.64355L40.6641 9.58105L37.7002 6.35742C37.585 6.23206 37.6283 6.03819 37.7686 5.96582L37.835 5.94336L42.127 5.07715C42.314 5.0394 42.479 4.9319 42.5889 4.77832L42.6318 4.70996L44.7822 0.895508Z" fill="white" stroke="#2D3436" stroke-width="0.5"/>
<path d="M62.7822 0.895508C62.8779 0.725889 63.1221 0.725889 63.2178 0.895508L65.3682 4.70996C65.4752 4.89978 65.6594 5.03405 65.873 5.07715L70.165 5.94336C70.3558 5.98197 70.4316 6.21408 70.2998 6.35742L67.3359 9.58105C67.1886 9.74149 67.1185 9.95841 67.1436 10.1748L67.6455 14.5244C67.6677 14.7176 67.4709 14.861 67.2939 14.7803L63.3125 12.958C63.1143 12.8673 62.8857 12.8673 62.6875 12.958L58.7061 14.7803C58.5291 14.861 58.3323 14.7176 58.3545 14.5244L58.8564 10.1748C58.8783 9.98544 58.8277 9.79545 58.7158 9.64355L58.6641 9.58105L55.7002 6.35742C55.585 6.23206 55.6283 6.03819 55.7686 5.96582L55.835 5.94336L60.127 5.07715C60.314 5.0394 60.479 4.9319 60.5889 4.77832L60.6318 4.70996L62.7822 0.895508Z" fill="white" stroke="#2D3436" stroke-width="0.5"/>
<path d="M80.7822 0.895508C80.8779 0.725889 81.1221 0.725889 81.2178 0.895508L83.3682 4.70996C83.4752 4.89978 83.6594 5.03405 83.873 5.07715L88.165 5.94336C88.3558 5.98197 88.4316 6.21408 88.2998 6.35742L85.3359 9.58105C85.1886 9.74149 85.1185 9.95841 85.1436 10.1748L85.6455 14.5244C85.6677 14.7176 85.4709 14.861 85.2939 14.7803L81.3125 12.958C81.1143 12.8673 80.8857 12.8673 80.6875 12.958L76.7061 14.7803C76.5291 14.861 76.3323 14.7176 76.3545 14.5244L76.8564 10.1748C76.8783 9.98544 76.8277 9.79545 76.7158 9.64355L76.6641 9.58105L73.7002 6.35742C73.585 6.23206 73.6283 6.03819 73.7686 5.96582L73.835 5.94336L78.127 5.07715C78.314 5.0394 78.479 4.9319 78.5889 4.77832L78.6318 4.70996L80.7822 0.895508Z" fill="white" stroke="#2D3436" stroke-width="0.5"/>
</svg>
