<svg width="90" height="17" viewBox="0 0 90 17" fill="none" xmlns="http://www.w3.org/2000/svg">
<path d="M8.6084 1.20508C8.76979 0.918733 9.1657 0.90074 9.35645 1.15137L9.3916 1.20508L11.3232 4.62988C11.4588 4.8704 11.6923 5.04012 11.9629 5.09473L15.8174 5.87305C16.1607 5.94253 16.2965 6.36014 16.0596 6.61816L13.3984 9.51367C13.2116 9.71692 13.1216 9.99137 13.1533 10.2656L13.6055 14.1719C13.6455 14.52 13.2894 14.7787 12.9707 14.6328L9.39551 12.9961C9.17581 12.8955 8.92708 12.8826 8.7002 12.958L8.60449 12.9961L5.0293 14.6328C4.71062 14.7787 4.35449 14.52 4.39453 14.1719L4.84668 10.2656C4.87442 10.0256 4.80888 9.78525 4.66699 9.59277L4.60156 9.51367L1.94043 6.61816C1.71823 6.37615 1.82382 5.99354 2.12109 5.88965L2.18262 5.87305L6.03711 5.09473C6.30775 5.04012 6.54119 4.8704 6.67676 4.62988L8.6084 1.20508Z" fill="#F3B021" stroke="#2D3436" stroke-width="0.5"/>
<path d="M26.6084 1.20508C26.7698 0.918733 27.1657 0.90074 27.3564 1.15137L27.3916 1.20508L29.3232 4.62988C29.4588 4.8704 29.6923 5.04012 29.9629 5.09473L33.8174 5.87305C34.1607 5.94253 34.2965 6.36014 34.0596 6.61816L31.3984 9.51367C31.2116 9.71692 31.1216 9.99137 31.1533 10.2656L31.6055 14.1719C31.6455 14.52 31.2894 14.7787 30.9707 14.6328L27.3955 12.9961C27.1758 12.8955 26.9271 12.8826 26.7002 12.958L26.6045 12.9961L23.0293 14.6328C22.7106 14.7787 22.3545 14.52 22.3945 14.1719L22.8467 10.2656C22.8744 10.0256 22.8089 9.78525 22.667 9.59277L22.6016 9.51367L19.9404 6.61816C19.7182 6.37615 19.8238 5.99354 20.1211 5.88965L20.1826 5.87305L24.0371 5.09473C24.3077 5.04012 24.5412 4.8704 24.6768 4.62988L26.6084 1.20508Z" fill="#F3B021" stroke="#2D3436" stroke-width="0.5"/>
<path d="M44.6084 1.20508C44.7698 0.918733 45.1657 0.90074 45.3564 1.15137L45.3916 1.20508L47.3232 4.62988C47.4588 4.8704 47.6923 5.04012 47.9629 5.09473L51.8174 5.87305C52.1607 5.94253 52.2965 6.36014 52.0596 6.61816L49.3984 9.51367C49.2116 9.71692 49.1216 9.99137 49.1533 10.2656L49.6055 14.1719C49.6455 14.52 49.2894 14.7787 48.9707 14.6328L45.3955 12.9961C45.1758 12.8955 44.9271 12.8826 44.7002 12.958L44.6045 12.9961L41.0293 14.6328C40.7106 14.7787 40.3545 14.52 40.3945 14.1719L40.8467 10.2656C40.8744 10.0256 40.8089 9.78525 40.667 9.59277L40.6016 9.51367L37.9404 6.61816C37.7182 6.37615 37.8238 5.99354 38.1211 5.88965L38.1826 5.87305L42.0371 5.09473C42.3077 5.04012 42.5412 4.8704 42.6768 4.62988L44.6084 1.20508Z" fill="#F3B021" stroke="#2D3436" stroke-width="0.5"/>
<path d="M62.6084 1.20508C62.7698 0.918733 63.1657 0.90074 63.3564 1.15137L63.3916 1.20508L65.3232 4.62988C65.4588 4.8704 65.6923 5.04012 65.9629 5.09473L69.8174 5.87305C70.1607 5.94253 70.2965 6.36014 70.0596 6.61816L67.3984 9.51367C67.2116 9.71692 67.1216 9.99137 67.1533 10.2656L67.6055 14.1719C67.6455 14.52 67.2894 14.7787 66.9707 14.6328L63.3955 12.9961C63.1758 12.8955 62.9271 12.8826 62.7002 12.958L62.6045 12.9961L59.0293 14.6328C58.7106 14.7787 58.3545 14.52 58.3945 14.1719L58.8467 10.2656C58.8744 10.0256 58.8089 9.78525 58.667 9.59277L58.6016 9.51367L55.9404 6.61816C55.7182 6.37615 55.8238 5.99354 56.1211 5.88965L56.1826 5.87305L60.0371 5.09473C60.3077 5.04012 60.5412 4.8704 60.6768 4.62988L62.6084 1.20508Z" fill="#F3B021" stroke="#2D3436" stroke-width="0.5"/>
<path d="M80.6084 1.20508C80.7698 0.918733 81.1657 0.90074 81.3564 1.15137L81.3916 1.20508L83.3232 4.62988C83.4588 4.8704 83.6923 5.04012 83.9629 5.09473L87.8174 5.87305C88.1607 5.94253 88.2965 6.36014 88.0596 6.61816L85.3984 9.51367C85.2116 9.71692 85.1216 9.99137 85.1533 10.2656L85.6055 14.1719C85.6455 14.52 85.2894 14.7787 84.9707 14.6328L81.3955 12.9961C81.1758 12.8955 80.9271 12.8826 80.7002 12.958L80.6045 12.9961L77.0293 14.6328C76.7106 14.7787 76.3545 14.52 76.3945 14.1719L76.8467 10.2656C76.8744 10.0256 76.8089 9.78525 76.667 9.59277L76.6016 9.51367L73.9404 6.61816C73.7182 6.37615 73.8238 5.99354 74.1211 5.88965L74.1826 5.87305L78.0371 5.09473C78.3077 5.04012 78.5412 4.8704 78.6768 4.62988L80.6084 1.20508Z" fill="#F3B021" stroke="#2D3436" stroke-width="0.5"/>
</svg>
