<svg width="66" height="66" viewBox="0 0 66 66" fill="none" xmlns="http://www.w3.org/2000/svg">
<path d="M28.875 57.75C28.875 57.75 24.75 57.75 24.75 53.625C24.75 49.5 28.875 37.125 45.375 37.125C61.875 37.125 66 49.5 66 53.625C66 57.75 61.875 57.75 61.875 57.75H28.875Z" fill="#354D5C"/>
<path d="M45.375 33C52.2095 33 57.75 27.4595 57.75 20.625C57.75 13.7905 52.2095 8.25 45.375 8.25C38.5405 8.25 33 13.7905 33 20.625C33 27.4595 38.5405 33 45.375 33Z" fill="#354D5C"/>
<path d="M21.5175 57.75C20.9367 56.5782 20.625 55.189 20.625 53.625C20.625 48.0338 23.4261 42.2835 28.6107 38.2799C26.3426 37.5544 23.6985 37.125 20.625 37.125C4.125 37.125 0 49.5 0 53.625C0 57.75 4.125 57.75 4.125 57.75H21.5175Z" fill="#354D5C"/>
<path d="M18.5625 33C24.2579 33 28.875 28.3829 28.875 22.6875C28.875 16.9921 24.2579 12.375 18.5625 12.375C12.8671 12.375 8.25 16.9921 8.25 22.6875C8.25 28.3829 12.8671 33 18.5625 33Z" fill="#354D5C"/>
</svg>
