<svg width="66" height="66" viewBox="0 0 66 66" fill="none" xmlns="http://www.w3.org/2000/svg">
<path fill-rule="evenodd" clip-rule="evenodd" d="M64.0552 12.2629C65.2298 12.7327 66 13.8703 66 15.1354V50.864C66 52.129 65.2298 53.2666 64.0552 53.7364L34.149 65.6989C33.4114 65.994 32.5886 65.994 31.851 65.6989L1.94476 53.7364C0.770193 53.2666 0 52.129 0 50.864V15.1354C0 13.8703 0.770192 12.7327 1.94476 12.2629L30.702 0.759945L30.7185 0.753384L31.851 0.300377C32.5886 0.00534372 33.4114 0.00534261 34.149 0.300377L35.2818 0.753486L35.298 0.759945L64.0552 12.2629ZM58.384 14.4372L33 24.5908L7.61595 14.4372L4.125 15.8335V17.4835L30.9375 28.2085V60.8908L33 61.7158L35.0625 60.8908V28.2085L61.875 17.4835V15.8335L58.384 14.4372Z" fill="#354D5C"/>
</svg>
