<svg width="67" height="66" viewBox="0 0 67 66" fill="none" xmlns="http://www.w3.org/2000/svg">
<path d="M37.0487 6.46149C35.2177 3.34617 30.795 3.34617 28.964 6.46149L0.679081 54.5865C-1.20618 57.7941 1.05715 61.875 4.72144 61.875H61.2913C64.9556 61.875 67.2189 57.7941 65.3337 54.5865L37.0487 6.46149ZM33 20.625C35.2086 20.625 36.9343 22.5319 36.7145 24.7295L35.2677 39.1977C35.1512 40.3628 34.1709 41.25 33 41.25C31.8291 41.25 30.8488 40.3628 30.7323 39.1977L29.2855 24.7295C29.0657 22.5319 30.7914 20.625 33 20.625ZM33.0064 45.375C35.2845 45.375 37.1314 47.2218 37.1314 49.5C37.1314 51.7782 35.2845 53.625 33.0064 53.625C30.7282 53.625 28.8814 51.7782 28.8814 49.5C28.8814 47.2218 30.7282 45.375 33.0064 45.375Z" fill="#354D5C"/>
</svg>
