<svg width="76" height="76" viewBox="0 0 76 76" fill="none" xmlns="http://www.w3.org/2000/svg">
<path d="M19 51.2111C19.7021 59.1297 26.1865 64.7454 36.0576 65.4727V71.25H41.0138V65.4727C51.7935 64.6242 58.4844 58.6449 58.4844 49.7971C58.4844 42.2421 53.9825 37.8788 44.4418 35.4143L41.0138 34.5255V16.4663C46.3417 16.9915 49.9349 19.86 50.8436 24.1425H57.8236C57.0388 16.5471 50.5132 11.093 41.0138 10.4869V4.75H36.0576V10.6081C26.8473 11.699 20.5282 17.5975 20.5282 25.5969C20.5282 32.5055 25.1126 37.394 33.1665 39.4544L36.0576 40.2221V59.3721C30.6058 58.5641 26.8473 55.5744 25.9387 51.2111H19ZM35.1076 32.9903C30.1514 31.7379 27.5081 29.0714 27.5081 25.3141C27.5081 20.8296 30.8536 17.5167 36.0576 16.6279V33.2327L35.1076 32.9903ZM42.6658 41.8785C48.7785 43.4137 51.4631 45.959 51.4631 50.2819C51.4631 55.4936 47.5394 58.9681 41.0138 59.4933V41.4745L42.6658 41.8785Z" fill="#354D5C"/>
</svg>
