<?xml version="1.0" encoding="utf-8"?>
<!-- Generator: Adobe Illustrator 24.0.1, SVG Export Plug-In . SVG Version: 6.00 Build 0)  -->
<svg version="1.1" id="Layer_1" xmlns="http://www.w3.org/2000/svg" xmlns:xlink="http://www.w3.org/1999/xlink" x="0px" y="0px"
	 viewBox="0 0 595.28 841.89" style="enable-background:new 0 0 595.28 841.89;" xml:space="preserve">
<style type="text/css">
	.st0{fill:#FFFFFF;}
	.st1{fill:#FAFAFA;}
	.st2{fill:#ECEBEB;}
	.st3{fill:none;stroke:#000000;stroke-width:10;stroke-miterlimit:10;}
</style>
<g>
	<g>
		<path class="st0" d="M388.35,251.04c-9.86,34.81-19.46,68.49-28.89,102.23c-1.35,4.83-4.77,4.48-8.36,4.48
			c-44.86,0-89.73-0.06-134.59,0.08c-4.68,0.01-6.67-1.22-8.02-6.09c-8.61-31.2-17.63-62.29-26.73-93.36
			c-1.38-4.73-1.83-7.41,4.53-7.4C253.27,251.08,320.25,251.04,388.35,251.04z"/>
		<path class="st1" d="M337.95,438.51c-0.67,4.77-3.37,8.15-8.25,8.41c-4.79,0.25-8.36-2.22-8.76-7.53
			c-0.45-5.91,3.04-9.12,8.37-9.17C334.07,430.17,337.1,433.48,337.95,438.51z"/>
		<path class="st2" d="M238.87,447.28c-5.19-1.19-8.79-3.75-8.27-9.58c0.47-5.2,4.22-7.83,8.77-7.57c5.15,0.29,8.7,3.53,8.19,9.36
			C247.1,444.7,243.35,446.51,238.87,447.28z"/>
	</g>
	<g>
		<g>
			<path class="st0" d="M125.33,176.3h391.15v384H125.33V176.3z M284.8,467.6c-22.36,21.33-25.36,39.7-10.81,55.7
				c12.5,13.76,34.45,14.52,47.8,1.66c16.03-15.44,13.76-33.83-7.08-56.22h84.11c-20.61,19.16-24.07,38.08-10.74,53.63
				c12.07,14.07,35.37,16.77,47.26,3.04c6.39-7.37,11.13-19.55,10.28-28.98c-0.89-9.84-9.39-18.99-14.74-28.77
				c7.77,0,16.88,1.34,25.29-0.52c4.82-1.06,3.51-8.03,7.71-11.95c-4.32-3.79-3.25-7.51-8.11-10.38c-2.58-1.52-6.76-0.31-10.21-0.31
				c-56.78,0-113.57-0.01-170.35,0c-8.02,0-16.99,0.87-17.31-10.78c-0.34-12.18,8.82-10.7,16.75-10.69
				c58.27,0.03,116.53-0.29,174.79,0.25c12.64,0.12,18.76-4.46,22.05-16.53c12.63-46.26,25.96-92.32,38.96-138.47
				c5.92-21,3.36-24.36-18.75-24.38c-82.95-0.05-165.91-0.02-248.86-0.02c-23.7,0-23.24-0.17-31.08-21.94
				c-3.62-10.05-6.07-22.56-20.89-22.63c-16.29-0.09-32.65-0.79-48.84,0.5c-4.75,0.38-9.04,6.6-13.55,10.15
				c4.63,3.92,8.86,10.43,13.98,11.24c11.09,1.75,22.7-0.14,33.95,1.01c4.04,0.41,9.78,4.53,11.09,8.25
				c9.28,26.33,18.02,52.88,26.11,79.61c8.59,28.38,16.82,56.9,24.01,85.66c1.98,7.9,1.5,17.45-0.95,25.26
				c-7.09,22.56,5.91,44.32,29.34,46.53C271.36,468.03,276.81,467.6,284.8,467.6z"/>
			<path d="M401.89,470.3 M269.08,469.08c-23.44-2.21-36.44-23.97-29.34-46.53c2.45-7.81,2.93-17.35,0.95-25.26
				c-7.2-28.76-15.42-57.28-24.01-85.66c-8.09-26.73-16.84-53.27-26.11-79.61c-1.31-3.72-7.04-7.84-11.09-8.25
				c-11.24-1.15-22.86,0.75-33.95-1.01c-5.12-0.81-9.35-7.31-13.98-11.24c4.5-3.55,8.79-9.77,13.55-10.15
				c16.19-1.28,32.55-0.58,48.84-0.5c14.82,0.08,17.27,12.58,20.89,22.63c7.83,21.77,7.37,21.94,31.08,21.94
				c82.95,0,165.91-0.03,248.86,0.02c22.11,0.01,24.67,3.37,18.75,24.38c-13,46.15-26.34,92.21-38.96,138.47
				c-3.29,12.07-9.42,16.65-22.05,16.53c-58.26-0.54-116.53-0.23-174.79-0.25c-7.92,0-17.09-1.49-16.75,10.69
				c0.33,11.64,9.3,10.78,17.31,10.78c56.78,0,113.57,0,170.35,0c3.46,0,9-0.41,11.57,1.11c1.37,0.81,1.29,0.93,2.55,1.94
				c6.4,5.14,6.4,13.44-0.34,18.12c-1.01,0.7-2.05,1.22-3.16,1.46 M228.97,268.93c0.83,3.87,1.28,6.67,2.03,9.37
				c10.4,37.07,21.06,74.06,31.12,111.22c2.43,8.99,6.27,12.3,16.08,12.17c46.32-0.63,92.66-0.28,139-0.28
				c35.25,0,35.34,0.02,45.1-34.25c9.27-32.54,18.35-65.14,27.67-98.24H228.97z"/>
			<path class="st0" d="M225.9,267.38h261c-9.31,33.09-18.39,65.69-27.67,98.24c-9.77,34.27-9.85,34.25-45.1,34.25
				c-46.33,0-92.67-0.35-139,0.28c-9.81,0.13-13.65-3.18-16.08-12.17c-10.06-37.16-20.72-74.15-31.12-111.22
				C227.17,274.04,226.73,271.25,225.9,267.38z"/>
			<path class="st0" d="M412.38,515.56"/>
		</g>
	</g>
	<circle class="st3" cx="298.62" cy="491.79" r="25.28"/>
	<circle class="st3" cx="413.63" cy="491.79" r="25.28"/>
</g>
</svg>
