<svg width="318" height="102" viewBox="0 0 318 102" fill="none" xmlns="http://www.w3.org/2000/svg">
<path d="M77.9187 17.0554C79.3589 17.0554 80.5991 17.5866 81.6526 18.6491C82.6995 19.6983 83.2262 20.9335 83.2262 22.3679C83.2262 23.8022 82.6995 25.044 81.6526 26.0866C80.5991 27.1358 79.3589 27.6538 77.9187 27.6538C76.4785 27.6538 75.2249 27.1358 74.1581 26.0866C73.1046 25.044 72.5845 23.8022 72.5845 22.3679C72.5845 20.9335 73.1046 19.6983 74.1581 18.6491C75.2249 17.5866 76.4785 17.0554 77.9187 17.0554ZM82.2394 36.8444V72.7038C82.2394 75.028 82.7195 76.6018 83.6796 77.4319C84.6531 78.2686 86.2801 78.6804 88.5604 78.6804V80.4069C87.6136 80.3538 86.1867 80.294 84.2664 80.221C82.3594 80.1347 80.4391 80.0882 78.5055 80.0882C76.6185 80.0882 74.6982 80.1347 72.7445 80.221C70.8042 80.294 69.364 80.3538 68.4238 80.4069V78.6804C70.6975 78.6804 72.3178 78.2686 73.2779 77.4319C74.2514 76.6018 74.7449 75.028 74.7449 72.7038V46.7788C74.7449 44.3018 74.2981 42.469 73.4113 41.2804C72.5378 40.0983 70.8776 39.5007 68.4238 39.5007V37.7741C70.1974 37.9335 71.9244 38.0132 73.598 38.0132C75.1983 38.0132 76.7252 37.9202 78.1854 37.721C79.659 37.5284 81.0125 37.2362 82.2394 36.8444Z" fill="#2D3436"/>
<path d="M118.648 36.6054C120.142 36.6054 121.455 36.9175 122.596 37.535C123.729 38.1393 124.609 38.9296 125.236 39.8991C125.876 40.8554 126.196 41.9378 126.196 43.1397C126.196 44.521 125.769 45.7429 124.916 46.8054C124.062 47.8546 122.916 48.3726 121.475 48.3726C120.302 48.3726 119.268 48.0007 118.381 47.2569C117.508 46.5132 117.075 45.4507 117.075 44.0694C117.075 43.0069 117.355 42.1038 117.928 41.36C118.515 40.6163 119.168 40.0253 119.902 39.5804C119.508 39.0358 118.922 38.7569 118.141 38.7569C116.415 38.7569 114.834 39.2749 113.394 40.2975C111.954 41.3069 110.734 42.6218 109.74 44.2288C108.74 45.8226 107.966 47.5226 107.42 49.3288C106.866 51.1218 106.593 52.7819 106.593 54.3226V71.8804C106.593 74.5897 107.373 76.4093 108.94 77.3257C110.52 78.2288 112.674 78.6804 115.394 78.6804V80.4069C114.127 80.3538 112.334 80.294 110.007 80.221C107.673 80.1347 105.206 80.0882 102.592 80.0882C100.705 80.0882 98.8317 80.1347 96.9647 80.221C95.1111 80.294 93.7175 80.3538 92.7773 80.4069V78.6804C95.051 78.6804 96.6713 78.2686 97.6315 77.4319C98.605 76.6019 99.0984 75.028 99.0984 72.7038V46.7788C99.0984 44.3018 98.6516 42.469 97.7648 41.2804C96.8913 40.0983 95.2311 39.5007 92.7773 39.5007V37.7741C94.551 37.9335 96.2779 38.0132 97.9515 38.0132C99.5518 38.0132 101.079 37.9202 102.539 37.721C104.012 37.5284 105.366 37.2362 106.593 36.8444V47.2038C107.193 45.6101 108.066 44.003 109.207 42.3694C110.34 40.7425 111.714 39.3811 113.314 38.2788C114.928 37.1632 116.708 36.6054 118.648 36.6054Z" fill="#2D3436"/>
<path d="M143.153 24.0147V37.8538H155.475V39.5007H143.153V71.535C143.153 74.1382 143.62 75.9643 144.566 77.0069C145.506 78.0561 146.813 78.5741 148.487 78.5741C150.141 78.5741 151.567 77.9034 152.781 76.5554C154.008 75.214 155.061 72.9362 155.955 69.7288L157.635 70.1272C157.062 73.3347 155.961 76.044 154.328 78.2554C152.708 80.4667 150.201 81.5757 146.807 81.5757C144.92 81.5757 143.366 81.3366 142.139 80.8585C140.926 80.4003 139.852 79.7296 138.912 78.8397C137.699 77.5647 136.858 76.0507 136.378 74.2976C135.912 72.5311 135.685 70.1737 135.685 67.2319V39.5007H127.684V37.8538H135.685V25.1835C137.072 25.1304 138.392 25.0241 139.659 24.8647C140.939 24.6921 142.099 24.4065 143.153 24.0147Z" fill="#2D3436"/>
<path d="M219.592 36.6054C223.146 36.6054 226.326 37.389 229.14 38.9429C231.967 40.4835 234.221 42.914 235.915 46.221C237.622 49.5347 238.475 53.8378 238.475 59.1304C238.475 64.4296 237.622 68.7194 235.915 72.0132C234.221 75.2936 231.967 77.7108 229.14 79.2647C226.326 80.8054 223.146 81.5757 219.592 81.5757C216.105 81.5757 212.931 80.8054 210.07 79.2647C207.223 77.7108 204.95 75.2936 203.243 72.0132C201.549 68.7194 200.709 64.4296 200.709 59.1304C200.709 53.8378 201.549 49.5347 203.243 46.221C204.95 42.914 207.223 40.4835 210.07 38.9429C212.931 37.389 216.105 36.6054 219.592 36.6054ZM219.592 38.2522C216.425 38.2522 213.831 39.8858 211.804 43.1397C209.79 46.4003 208.79 51.7327 208.79 59.1304C208.79 66.5347 209.79 71.8472 211.804 75.0679C213.831 78.2952 216.425 79.9022 219.592 79.9022C222.753 79.9022 225.34 78.2952 227.353 75.0679C229.38 71.8472 230.394 66.5347 230.394 59.1304C230.394 51.7327 229.38 46.4003 227.353 43.1397C225.34 39.8858 222.753 38.2522 219.592 38.2522Z" fill="#2D3436"/>
<path d="M259.645 36.6054C261.865 36.6054 263.752 36.9706 265.299 37.6944C266.859 38.405 267.999 39.0624 268.713 39.66C270.54 41.1675 271.653 40.178 272.047 36.685H273.94C273.834 38.2257 273.754 40.0718 273.7 42.21C273.647 44.335 273.62 47.1905 273.62 50.7632H271.7C271.38 48.7311 270.806 46.7456 269.993 44.8132C269.193 42.8874 268.019 41.3003 266.472 40.0585C264.926 38.8034 262.899 38.1725 260.391 38.1725C258.451 38.1725 256.831 38.7171 255.537 39.7929C254.237 40.8753 253.59 42.4624 253.59 44.5475C253.59 46.2143 254.084 47.6421 255.084 48.8241C256.077 50.0128 257.378 51.1218 258.978 52.1444C260.591 53.1538 262.345 54.2694 264.232 55.4913C266.326 56.8194 268.233 58.1741 269.94 59.5554C271.66 60.9233 273.04 62.4374 274.074 64.0975C275.101 65.7444 275.621 67.7034 275.621 69.9679C275.621 72.5179 274.954 74.6561 273.62 76.3694C272.287 78.0694 270.553 79.3643 268.419 80.2476C266.286 81.1308 263.945 81.5757 261.405 81.5757C260.178 81.5757 259.018 81.4761 257.938 81.2835C256.871 81.0843 255.837 80.7921 254.844 80.4069C254.27 80.128 253.697 79.796 253.11 79.4241C252.537 79.039 251.977 78.6206 251.43 78.1757C250.877 77.7374 250.377 77.7507 249.936 78.2288C249.49 78.6936 249.15 79.6101 248.923 80.9913H247.029C247.136 79.2249 247.216 77.0733 247.269 74.5366C247.323 71.9866 247.349 68.6132 247.349 64.4163H249.27C249.656 67.5175 250.21 70.2268 250.923 72.5444C251.65 74.8686 252.79 76.6749 254.337 77.9632C255.884 79.2581 258.044 79.9022 260.818 79.9022C261.918 79.9022 263.039 79.6565 264.179 79.1585C265.312 78.6671 266.266 77.8436 267.033 76.6882C267.813 75.5194 268.206 73.9722 268.206 72.0397C268.206 69.6159 267.313 67.6304 265.539 66.0897C263.779 64.5358 261.538 62.9022 258.818 61.2022C256.824 59.9272 254.957 58.6655 253.217 57.4038C251.47 56.1288 250.056 54.6944 248.976 53.1007C247.889 51.4936 247.349 49.5546 247.349 47.2835C247.349 44.8065 247.916 42.7811 249.056 41.2007C250.19 39.6268 251.703 38.4647 253.59 37.721C255.471 36.9772 257.491 36.6054 259.645 36.6054Z" fill="#2D3436"/>
<path d="M302.131 36.6054C306.999 36.6054 310.806 38.0862 313.546 41.0413C316.3 44.003 317.68 48.5983 317.68 54.8272H288.316L288.236 53.26H309.679C309.799 50.5507 309.579 48.0538 309.012 45.7694C308.459 43.4718 307.585 41.6257 306.399 40.2444C305.205 38.8632 303.665 38.1725 301.784 38.1725C299.237 38.1725 296.984 39.4475 295.01 41.9975C293.05 44.5343 291.876 48.5585 291.489 54.0835L291.729 54.4022C291.623 55.239 291.543 56.1487 291.489 57.1382C291.436 58.1343 291.409 59.1237 291.409 60.1132C291.409 63.8718 292.01 67.0991 293.223 69.8085C294.45 72.5179 296.037 74.5831 297.997 75.9976C299.971 77.3987 302.011 78.096 304.131 78.096C305.785 78.096 307.359 77.8436 308.852 77.3257C310.346 76.7944 311.733 75.9179 313.013 74.696C314.293 73.4741 315.4 71.8472 316.347 69.8085L318 70.4725C317.394 72.2987 316.4 74.0718 315.013 75.785C313.626 77.4851 311.873 78.8796 309.759 79.9554C307.659 81.0311 305.225 81.5757 302.451 81.5757C298.464 81.5757 295.043 80.6593 292.183 78.8397C289.336 77.0202 287.149 74.4968 285.622 71.2694C284.088 68.0288 283.328 64.3101 283.328 60.1132C283.328 55.2655 284.102 51.0819 285.648 47.5757C287.209 44.0694 289.409 41.3733 292.236 39.4741C295.063 37.5616 298.357 36.6054 302.131 36.6054Z" fill="#2D3436"/>
<mask id="mask0_143_611" style="mask-type:luminance" maskUnits="userSpaceOnUse" x="148" y="34" width="69" height="61">
<path d="M148.018 34.5844H216.295V94.6488H148.018V34.5844Z" fill="white"/>
</mask>
<g mask="url(#mask0_143_611)">
<path fill-rule="evenodd" clip-rule="evenodd" d="M170.708 61.9371C181.497 65.2375 198.033 83.207 208.401 79.1629C221.63 74.0164 209.854 53.1781 202.68 61.7578C201.833 65.2242 199.426 65.4234 197.853 64.2879C196.219 63.1324 196.086 60.2106 198.819 59.1016C205.434 56.4254 211.315 59.7922 213.962 64.7594C216.322 69.2086 216.209 74.8531 212.462 78.1934C206.761 83.2934 199.913 80.75 194.185 77.4762C193.765 78.2531 193.265 79.0367 192.658 79.8402C191.385 81.5203 189.631 82.875 187.384 83.9043C185.137 84.927 182.163 85.4449 178.463 85.4449C172.835 85.4449 168.541 84.0637 165.561 81.3078C162.587 78.5586 161.107 74.3418 161.107 68.6508V63.9426C163.3 63.6836 165.707 64.0688 168.128 64.8059V69.3547C168.128 72.1438 168.374 74.5145 168.868 76.4469C169.361 78.3859 170.095 79.9531 171.075 81.1418C172.062 82.3172 173.269 83.1805 174.729 83.6852C176.182 84.2031 177.843 84.4555 179.716 84.4555C182.343 84.4555 184.664 84.077 186.677 83.3C188.691 82.543 190.411 81.175 191.872 79.2094C192.345 78.6117 192.752 78.0074 193.112 77.3965C193.185 77.2637 193.258 77.1242 193.332 76.9914C193.065 76.832 192.792 76.666 192.532 76.5133C178.823 68.1793 159.086 52.7399 151.052 70.7426C145.831 82.4566 155.432 94.941 165.281 91.3086C166.227 90.95 167.101 90.3457 167.848 89.3828C168.734 84.9535 171.782 84.6016 173.815 85.943C175.956 87.3441 176.302 91.116 172.868 92.5637C169.228 94.0977 163.647 93.9981 159.073 92.5371C143.604 87.5899 146.024 64.1352 161.107 61.2066V35.5539H153.312V34.5844H175.929V35.5539H168.134V61.293C168.968 61.4524 169.835 61.6649 170.708 61.9371ZM194.265 74.4016C194.412 73.784 194.519 73.0867 194.619 72.3363C194.759 71.1941 194.832 69.7797 194.832 68.093V35.5539H187.037V34.5844H203.687V35.5539H195.886V69.4875C195.886 71.4398 195.672 73.2395 195.259 74.8332L195.232 74.9328C194.905 74.7668 194.579 74.5809 194.265 74.4016Z" fill="#2D3436"/>
</g>
<mask id="mask1_143_611" style="mask-type:luminance" maskUnits="userSpaceOnUse" x="0" y="0" width="82" height="102">
<path d="M0 0H81.9333V102H0V0Z" fill="white"/>
</mask>
<g mask="url(#mask1_143_611)">
<path d="M79.8663 0.00659943H67.5243C66.6174 0.00659943 65.8907 0.723787 65.8907 1.62691V2.5898C65.8907 3.39996 66.4508 4.09722 67.2442 4.26324C67.871 4.39605 68.6711 4.59527 69.5913 4.8941C70.5581 5.20621 71.0715 6.23551 70.7581 7.17847L46.9609 77.5027C46.8342 77.848 46.3342 77.848 46.2075 77.5027L22.5036 7.41754C22.2036 6.54761 22.6103 5.61129 23.4238 5.22613C24.1639 4.87418 25.0574 4.52222 26.0175 4.28316C26.7777 4.09722 27.3111 3.39996 27.3111 2.62301V1.64683C27.3111 0.743709 26.591 0.0265213 25.6842 0.0265213H1.62693C0.720117 0.006599 0 0.723787 0 1.62691V2.5898C0 3.39996 0.553423 4.09722 1.35355 4.26324C2.10701 4.42926 3.12717 4.68824 4.27402 5.09332C5.42088 5.4984 6.32769 6.42144 6.73442 7.58355L38.1728 100.519C38.4729 101.402 39.2997 101.993 40.2265 101.993H41.5801C42.5069 101.993 43.3337 101.402 43.6337 100.519L75.0521 7.67652C75.4989 6.32847 76.5724 5.29918 77.9193 4.85426C78.6061 4.63511 79.3662 4.42926 80.1396 4.26324C80.9398 4.09722 81.4932 3.39996 81.4932 2.5898V1.62691C81.4932 0.723787 80.7531 0.00659943 79.8663 0.00659943Z" fill="#2D3436"/>
</g>
</svg>
