<svg width="193" height="62" viewBox="0 0 193 62" fill="none" xmlns="http://www.w3.org/2000/svg">
<path d="M47.2904 10.367C48.1645 10.367 48.9172 10.6899 49.5566 11.3357C50.192 11.9735 50.5117 12.7243 50.5117 13.5962C50.5117 14.468 50.192 15.2228 49.5566 15.8566C48.9172 16.4943 48.1645 16.8092 47.2904 16.8092C46.4163 16.8092 45.6555 16.4943 45.0081 15.8566C44.3687 15.2228 44.053 14.468 44.053 13.5962C44.053 12.7243 44.3687 11.9735 45.0081 11.3357C45.6555 10.6899 46.4163 10.367 47.2904 10.367ZM49.9128 22.3956V44.1925C49.9128 45.6053 50.2041 46.5619 50.7869 47.0665C51.3777 47.5751 52.3651 47.8253 53.7491 47.8253V48.8748C53.1745 48.8425 52.3084 48.8062 51.143 48.7618C49.9856 48.7093 48.8201 48.681 47.6466 48.681C46.5013 48.681 45.3358 48.7093 44.1501 48.7618C42.9725 48.8062 42.0984 48.8425 41.5278 48.8748V47.8253C42.9078 47.8253 43.8911 47.5751 44.4739 47.0665C45.0647 46.5619 45.3642 45.6053 45.3642 44.1925V28.4342C45.3642 26.9286 45.093 25.8145 44.5548 25.092C44.0247 24.3735 43.017 24.0102 41.5278 24.0102V22.9607C42.6043 23.0576 43.6524 23.106 44.6681 23.106C45.6394 23.106 46.5661 23.0495 47.4523 22.9284C48.3467 22.8114 49.1681 22.6338 49.9128 22.3956Z" fill="#FBFAF8"/>
<path d="M72.0096 22.2503C72.9161 22.2503 73.7133 22.44 74.4053 22.8154C75.0932 23.1827 75.6274 23.6631 76.0078 24.2524C76.3963 24.8336 76.5905 25.4916 76.5905 26.2222C76.5905 27.0618 76.3316 27.8045 75.8136 28.4503C75.2956 29.0881 74.5995 29.4029 73.7254 29.4029C73.0132 29.4029 72.3859 29.1769 71.8477 28.7248C71.3176 28.2727 71.0546 27.6269 71.0546 26.7873C71.0546 26.1415 71.2245 25.5925 71.5725 25.1404C71.9287 24.6883 72.3252 24.3291 72.7704 24.0586C72.5316 23.7277 72.1755 23.5581 71.702 23.5581C70.6539 23.5581 69.6948 23.873 68.8207 24.4946C67.9466 25.1081 67.2061 25.9073 66.6031 26.8842C65.9961 27.8529 65.5267 28.8863 65.1948 29.9842C64.8589 31.074 64.693 32.0831 64.693 33.0196V43.692C64.693 45.3389 65.1665 46.4448 66.1175 47.0019C67.0766 47.5508 68.3837 47.8253 70.0348 47.8253V48.8748C69.2659 48.8425 68.1773 48.8062 66.765 48.7618C65.3486 48.7093 63.8513 48.681 62.265 48.681C61.1197 48.681 59.9826 48.7093 58.8495 48.7618C57.7245 48.8062 56.8787 48.8425 56.3081 48.8748V47.8253C57.6881 47.8253 58.6714 47.5751 59.2542 47.0665C59.845 46.5619 60.1444 45.6053 60.1444 44.1925V28.4342C60.1444 26.9286 59.8733 25.8145 59.3351 25.092C58.805 24.3735 57.7973 24.0102 56.3081 24.0102V22.9607C57.3845 23.0576 58.4327 23.106 59.4484 23.106C60.4196 23.106 61.3463 23.0495 62.2326 22.9284C63.1269 22.8114 63.9484 22.6338 64.693 22.3956V28.6925C65.0572 27.7238 65.5874 26.7469 66.2794 25.754C66.9673 24.765 67.801 23.9376 68.7722 23.2675C69.7515 22.5894 70.832 22.2503 72.0096 22.2503Z" fill="#FBFAF8"/>
<path d="M86.8817 14.5972V23.0092H94.3601V24.0102H86.8817V43.4821C86.8817 45.0644 87.165 46.1744 87.7396 46.8081C88.3102 47.4459 89.1034 47.7607 90.1191 47.7607C91.1227 47.7607 91.9887 47.3531 92.7252 46.5337C93.4698 45.7183 94.1092 44.3338 94.6515 42.3842L95.6713 42.6264C95.3233 44.576 94.6555 46.2228 93.6641 47.567C92.6807 48.9111 91.1591 49.5852 89.0993 49.5852C87.9541 49.5852 87.0112 49.4399 86.2666 49.1493C85.5301 48.8708 84.8785 48.4631 84.3079 47.9222C83.5714 47.1472 83.0615 46.2269 82.7702 45.1613C82.4869 44.0876 82.3493 42.6546 82.3493 40.8665V24.0102H77.4932V23.0092H82.3493V15.3076C83.191 15.2753 83.9923 15.2107 84.7612 15.1139C85.5382 15.0089 86.2423 14.8353 86.8817 14.5972Z" fill="#FBFAF8"/>
<path d="M133.274 22.2503C135.431 22.2503 137.362 22.7266 139.069 23.6711C140.785 24.6076 142.153 26.085 143.181 28.0951C144.217 30.1093 144.735 32.7249 144.735 35.942C144.735 39.1631 144.217 41.7706 143.181 43.7727C142.153 45.7667 140.785 47.236 139.069 48.1805C137.362 49.117 135.431 49.5852 133.274 49.5852C131.158 49.5852 129.232 49.117 127.496 48.1805C125.768 47.236 124.388 45.7667 123.352 43.7727C122.324 41.7706 121.814 39.1631 121.814 35.942C121.814 32.7249 122.324 30.1093 123.352 28.0951C124.388 26.085 125.768 24.6076 127.496 23.6711C129.232 22.7266 131.158 22.2503 133.274 22.2503ZM133.274 23.2514C131.352 23.2514 129.778 24.2443 128.548 26.2222C127.326 28.2041 126.719 31.4454 126.719 35.942C126.719 40.4426 127.326 43.6718 128.548 45.6295C129.778 47.5912 131.352 48.568 133.274 48.568C135.193 48.568 136.763 47.5912 137.985 45.6295C139.215 43.6718 139.83 40.4426 139.83 35.942C139.83 31.4454 139.215 28.2041 137.985 26.2222C136.763 24.2443 135.193 23.2514 133.274 23.2514Z" fill="#FBFAF8"/>
<path d="M157.583 22.2503C158.93 22.2503 160.076 22.4723 161.014 22.9123C161.961 23.3442 162.653 23.7438 163.086 24.1071C164.195 25.0234 164.871 24.4219 165.11 22.2988H166.259C166.194 23.2352 166.146 24.3573 166.113 25.6571C166.081 26.9488 166.065 28.6844 166.065 30.856H164.899C164.705 29.6209 164.357 28.414 163.863 27.2394C163.378 26.0688 162.666 25.1041 161.727 24.3493C160.788 23.5864 159.558 23.2029 158.036 23.2029C156.858 23.2029 155.875 23.5339 155.09 24.1878C154.301 24.8458 153.908 25.8105 153.908 27.0779C153.908 28.0911 154.208 28.9589 154.815 29.6774C155.418 30.3999 156.207 31.074 157.178 31.6956C158.157 32.3092 159.222 32.9873 160.367 33.73C161.638 34.5373 162.795 35.3607 163.831 36.2003C164.875 37.0318 165.713 37.9521 166.34 38.9613C166.963 39.9623 167.279 41.1531 167.279 42.5295C167.279 44.0795 166.874 45.3792 166.065 46.4206C165.255 47.454 164.203 48.2411 162.908 48.7779C161.613 49.3148 160.193 49.5852 158.651 49.5852C157.907 49.5852 157.202 49.5247 156.547 49.4076C155.899 49.2865 155.272 49.1089 154.669 48.8748C154.321 48.7053 153.973 48.5034 153.617 48.2774C153.269 48.0433 152.929 47.789 152.597 47.5185C152.261 47.2521 151.958 47.2602 151.691 47.5508C151.42 47.8334 151.213 48.3904 151.076 49.23H149.926C149.991 48.1563 150.04 46.8485 150.072 45.3066C150.104 43.7566 150.121 41.706 150.121 39.155H151.286C151.521 41.04 151.857 42.6869 152.29 44.0956C152.731 45.5084 153.423 46.6063 154.362 47.3894C155.3 48.1765 156.612 48.568 158.295 48.568C158.963 48.568 159.643 48.4187 160.335 48.1159C161.023 47.8172 161.601 47.3167 162.067 46.6144C162.54 45.904 162.779 44.9635 162.779 43.7889C162.779 42.3155 162.237 41.1087 161.16 40.1722C160.092 39.2277 158.732 38.2347 157.081 37.2014C155.871 36.4264 154.738 35.6594 153.682 34.8925C152.621 34.1175 151.764 33.2456 151.108 32.2769C150.448 31.3001 150.121 30.1214 150.121 28.7409C150.121 27.2353 150.464 26.0042 151.156 25.0435C151.844 24.0869 152.763 23.3805 153.908 22.9284C155.049 22.4764 156.276 22.2503 157.583 22.2503Z" fill="#FBFAF8"/>
<path d="M183.368 22.2503C186.323 22.2503 188.633 23.1504 190.297 24.9467C191.968 26.7469 192.806 29.5402 192.806 33.3264H174.984L174.935 32.3738H187.949C188.022 30.7269 187.889 29.2092 187.545 27.8206C187.209 26.424 186.679 25.3019 185.958 24.4623C185.234 23.6227 184.299 23.2029 183.158 23.2029C181.612 23.2029 180.244 23.9779 179.046 25.5279C177.857 27.0698 177.145 29.5159 176.91 32.8743L177.055 33.068C176.991 33.5766 176.942 34.1296 176.91 34.731C176.877 35.3365 176.861 35.9379 176.861 36.5394C176.861 38.824 177.225 40.7857 177.962 42.4326C178.707 44.0795 179.67 45.3348 180.859 46.1946C182.057 47.0463 183.296 47.4701 184.582 47.4701C185.586 47.4701 186.541 47.3167 187.448 47.0019C188.354 46.679 189.196 46.1461 189.973 45.4034C190.75 44.6607 191.422 43.6718 191.996 42.4326L193 42.8363C192.632 43.9463 192.029 45.024 191.187 46.0654C190.345 47.0988 189.281 47.9464 187.998 48.6003C186.723 49.2542 185.246 49.5852 183.563 49.5852C181.143 49.5852 179.067 49.0282 177.331 47.9222C175.603 46.8162 174.275 45.2823 173.349 43.3206C172.418 41.3508 171.957 39.0904 171.957 36.5394C171.957 33.5928 172.426 31.0498 173.365 28.9185C174.312 26.7873 175.647 25.1485 177.363 23.9941C179.079 22.8316 181.078 22.2503 183.368 22.2503Z" fill="#FBFAF8"/>
<mask id="mask0_441_2188" style="mask-type:luminance" maskUnits="userSpaceOnUse" x="89" y="21" width="43" height="37">
<path d="M89.8345 21.0219H131.273V57.5316H89.8345V21.0219Z" fill="white"/>
</mask>
<g mask="url(#mask0_441_2188)">
<path fill-rule="evenodd" clip-rule="evenodd" d="M103.606 37.6481C110.153 39.6542 120.189 50.5768 126.482 48.1186C134.511 44.9904 127.364 32.324 123.01 37.5391C122.496 39.6461 121.035 39.7672 120.08 39.077C119.089 38.3746 119.008 36.5986 120.667 35.9245C124.681 34.2978 128.25 36.3443 129.857 39.3635C131.29 42.068 131.221 45.499 128.946 47.5293C125.486 50.6293 121.33 49.0833 117.854 47.0934C117.599 47.5656 117.296 48.0419 116.928 48.5303C116.155 49.5516 115.09 50.375 113.727 51.0007C112.363 51.6223 110.558 51.9371 108.312 51.9371C104.896 51.9371 102.29 51.0975 100.481 49.4224C98.6766 47.7513 97.7782 45.1882 97.7782 41.7289V38.8671C99.1096 38.7096 100.57 38.9438 102.039 39.3918V42.1568C102.039 43.8521 102.189 45.2931 102.489 46.4677C102.788 47.6464 103.233 48.599 103.828 49.3215C104.427 50.0359 105.16 50.5607 106.046 50.8675C106.928 51.1823 107.936 51.3357 109.073 51.3357C110.667 51.3357 112.075 51.1056 113.298 50.6333C114.52 50.1732 115.564 49.3417 116.45 48.1469C116.737 47.7836 116.984 47.4163 117.203 47.0449C117.247 46.9642 117.292 46.8794 117.336 46.7987C117.174 46.7018 117.008 46.6009 116.851 46.5081C108.53 41.4423 96.552 32.0576 91.6757 43.0004C88.507 50.1207 94.3344 57.7093 100.311 55.5013C100.886 55.2833 101.416 54.916 101.869 54.3307C102.408 51.6384 104.257 51.4245 105.491 52.2398C106.79 53.0915 107.001 55.3843 104.917 56.2642C102.707 57.1966 99.32 57.1361 96.5439 56.2481C87.1554 53.2409 88.6244 38.9841 97.7782 37.204V21.6112H93.0475V21.0219H106.774V21.6112H102.044V37.2565C102.549 37.3534 103.075 37.4826 103.606 37.6481ZM117.903 45.2245C117.992 44.8491 118.057 44.4253 118.117 43.9691C118.202 43.2749 118.247 42.4151 118.247 41.3898V21.6112H113.516V21.0219H123.621V21.6112H118.886V42.2375C118.886 43.4242 118.757 44.5181 118.506 45.4869L118.49 45.5474C118.291 45.4465 118.093 45.3335 117.903 45.2245Z" fill="#FBFAF8"/>
</g>
<mask id="mask1_441_2188" style="mask-type:luminance" maskUnits="userSpaceOnUse" x="0" y="0" width="50" height="62">
<path d="M0 0H49.7268V62H0V0Z" fill="white"/>
</mask>
<g mask="url(#mask1_441_2188)">
<path d="M48.4723 0.00400925H40.9817C40.4313 0.00400925 39.9902 0.439947 39.9902 0.988905V1.57419C39.9902 2.06664 40.3302 2.49047 40.8117 2.59138C41.1921 2.67211 41.6777 2.7932 42.2362 2.97484C42.823 3.16456 43.1346 3.79021 42.9444 4.36338L28.5014 47.1095C28.4246 47.3194 28.121 47.3194 28.0442 47.1095L13.6579 4.5087C13.4758 3.97992 13.7226 3.41078 14.2163 3.17667C14.6655 2.96273 15.2078 2.7488 15.7905 2.60349C16.2519 2.49047 16.5756 2.06664 16.5756 1.59437V1.00101C16.5756 0.452056 16.1385 0.0161186 15.5882 0.0161186H0.987413C0.437052 0.00400899 0 0.439947 0 0.988905V1.57419C0 2.06664 0.335882 2.49047 0.821496 2.59138C1.27878 2.69229 1.89794 2.84971 2.59398 3.09594C3.29003 3.34216 3.84039 3.90323 4.08724 4.60961L23.1678 61.0998C23.3499 61.6367 23.8517 61.9959 24.4142 61.9959H25.2357C25.7982 61.9959 26.3 61.6367 26.4821 61.0998L45.5505 4.66612C45.8216 3.84672 46.4732 3.22107 47.2906 2.95062C47.7074 2.81742 48.1688 2.69229 48.6382 2.59138C49.1238 2.49047 49.4597 2.06664 49.4597 1.57419V0.988905C49.4597 0.439947 49.0105 0.00400925 48.4723 0.00400925Z" fill="#FBFAF8"/>
</g>
</svg>
