<svg width="43" height="31" viewBox="0 0 43 31" fill="none" xmlns="http://www.w3.org/2000/svg">
<path d="M0 3.95603C0.0501253 3.77224 0.108605 3.58844 0.15873 3.40465C0.609858 1.86747 2.00501 0.773071 3.60067 0.714591C3.70092 0.714591 3.79281 0.706238 3.89307 0.706238C15.5221 0.706238 27.1512 0.706238 38.7719 0.706238C40.401 0.706238 41.5957 1.4247 42.3225 2.88669C42.5982 3.43807 42.6817 4.04792 42.6817 4.66614C42.6733 9.21919 42.6817 13.7806 42.6817 18.3336C42.6817 21.1908 42.6901 24.0563 42.6817 26.9134C42.6733 28.6762 41.5539 30.1382 39.8914 30.5642C39.5238 30.6561 39.1228 30.6979 38.7385 30.6979C27.1345 30.7062 15.5388 30.7062 3.93484 30.7062C1.92147 30.7062 0.492898 29.5534 0.0668334 27.6068C0.0584791 27.5567 0.0250627 27.5066 0 27.4564C0 19.6285 0 11.7923 0 3.95603ZM21.3701 3.20415C15.5723 3.20415 9.78279 3.20415 3.98496 3.20415C2.95739 3.20415 2.48956 3.67199 2.48956 4.70791C2.48956 12.0429 2.48956 19.3779 2.48956 26.7129C2.48956 27.7488 2.95739 28.2167 3.98496 28.2167C15.5472 28.2167 27.1011 28.2083 38.6633 28.225C39.5906 28.225 40.1921 27.6569 40.1921 26.6879C40.1671 19.3696 40.1838 12.0429 40.1838 4.72462C40.1838 3.66363 39.7243 3.19579 38.6633 3.19579C32.8989 3.20415 27.1345 3.20415 21.3701 3.20415Z" fill="#2D3436"/>
<path d="M12.0889 23.6218C10.2176 23.6218 8.33788 23.6218 6.46653 23.6218C5.48909 23.6218 5.02961 23.1373 5.00454 22.1682C4.94607 20.372 5.34707 18.7263 6.44982 17.281C6.94272 16.6294 7.52752 16.0863 8.20421 15.6352C8.60521 15.3679 8.60521 15.3679 8.33788 14.9919C6.51666 12.3687 7.86169 8.73462 10.9527 7.94932C12.8408 7.46477 14.7873 8.2083 15.8817 9.81231C16.9511 11.3829 16.926 13.4464 15.8233 15.017C15.5726 15.3679 15.581 15.3679 15.9319 15.6101C17.9954 17.0136 19.073 18.9602 19.1649 21.4497C19.1733 21.7004 19.1649 21.951 19.1649 22.2016C19.1566 23.1206 18.672 23.6218 17.7531 23.6218C15.865 23.6218 13.977 23.6218 12.0889 23.6218ZM16.6253 21.1323C16.4832 18.9101 14.5618 17.0638 12.3395 16.9635C9.99201 16.8633 7.91181 18.5007 7.56929 20.7396C7.51081 21.1323 7.51081 21.1323 7.92852 21.1323C10.6938 21.1323 13.4507 21.1323 16.2159 21.1323C16.3496 21.1323 16.4916 21.1323 16.6253 21.1323ZM12.0806 10.2885C10.9277 10.2885 9.99201 11.2242 9.99201 12.3854C10.0004 13.5216 10.9193 14.4489 12.0555 14.4656C13.2084 14.474 14.1608 13.5383 14.1608 12.3854C14.1775 11.2242 13.2418 10.2885 12.0806 10.2885Z" fill="#2D3436"/>
<path d="M29.7578 16.9552C27.6024 16.9552 25.4554 16.9552 23.3 16.9552C23.1246 16.9552 22.9324 16.9468 22.7654 16.8967C22.1639 16.7296 21.7796 16.1699 21.8464 15.5767C21.9132 14.9836 22.3978 14.5074 23.0076 14.4573C23.1162 14.4489 23.2332 14.4573 23.3418 14.4573C27.6192 14.4573 31.8965 14.4573 36.1739 14.4573C36.341 14.4573 36.508 14.4489 36.6668 14.4823C37.285 14.616 37.7111 15.1757 37.6693 15.7856C37.6192 16.4372 37.1012 16.9301 36.4161 16.9468C35.4888 16.9635 34.5532 16.9468 33.6258 16.9468C32.3393 16.9552 31.0444 16.9552 29.7578 16.9552Z" fill="#2D3436"/>
<path d="M29.7587 21.951C27.6033 21.951 25.4562 21.951 23.3009 21.951C23.1254 21.951 22.9333 21.9427 22.7662 21.9009C22.1647 21.7422 21.7804 21.1741 21.8389 20.5893C21.9057 19.9961 22.3902 19.5199 23.0001 19.4698C23.1087 19.4615 23.2257 19.4698 23.3343 19.4698C27.6116 19.4698 31.889 19.4698 36.1664 19.4698C36.3334 19.4698 36.5005 19.4615 36.6676 19.4949C37.2858 19.6202 37.7119 20.1883 37.6701 20.7898C37.62 21.4414 37.102 21.9427 36.4253 21.951C35.6066 21.9677 34.7879 21.951 33.9692 21.9594C32.5657 21.951 31.1622 21.951 29.7587 21.951Z" fill="#2D3436"/>
<path d="M25.5894 9.46148C26.383 9.46148 27.1683 9.46148 27.962 9.46148C28.7723 9.46148 29.3321 9.97944 29.3321 10.7063C29.3321 11.4331 28.764 11.951 27.962 11.951C26.383 11.951 24.7957 11.951 23.2168 11.951C22.4064 11.951 21.8467 11.4331 21.8467 10.7063C21.8467 9.97944 22.4148 9.46148 23.2168 9.46148C24.0104 9.45312 24.7957 9.46148 25.5894 9.46148Z" fill="#2D3436"/>
</svg>
