<svg width="29" height="30" viewBox="0 0 29 30" fill="none" xmlns="http://www.w3.org/2000/svg">
<path fill-rule="evenodd" clip-rule="evenodd" d="M28.6683 0.911654C28.8783 1.08379 29 1.34099 29 1.6125V26.9875C29 27.4195 28.6951 27.7914 28.2715 27.8761L19.209 29.6886C19.0917 29.7121 18.9708 29.7121 18.8535 29.6886L9.96875 27.9117L1.08398 29.6886C0.817746 29.7419 0.541665 29.673 0.331698 29.5008C0.12173 29.3287 0 29.0715 0 28.8V3.425C0 2.993 0.304917 2.62107 0.72852 2.53634L9.79102 0.723844C9.90834 0.700379 10.0292 0.700379 10.1465 0.723844L19.0312 2.5008L27.916 0.723844C28.1823 0.670598 28.4583 0.739522 28.6683 0.911654ZM18.125 4.16794L10.875 2.71794V26.2445L18.125 27.6945V4.16794ZM19.9375 27.6945L27.1875 26.2445V2.71794L19.9375 4.16794V27.6945ZM9.0625 26.2445V2.71794L1.8125 4.16794V27.6945L9.0625 26.2445Z" fill="#2D3436"/>
</svg>
