<svg width="29" height="35" viewBox="0 0 29 35" fill="none" xmlns="http://www.w3.org/2000/svg">
<path d="M22.5167 0.00405884C22.6872 0.0578998 22.8577 0.111742 23.0192 0.174556C23.9884 0.542469 24.6614 1.44879 24.6704 2.48972C24.6883 4.087 24.6793 5.69325 24.6793 7.29053C24.6793 7.42514 24.6793 7.55974 24.6793 7.64947C25.2267 7.62255 25.7562 7.55974 26.2856 7.57769C27.4342 7.62255 28.2598 8.2148 28.6905 9.2647C29.1212 10.3236 28.8969 11.3017 28.1252 12.1542C28.0893 12.199 28.0534 12.2349 28.0085 12.2798C27.9995 12.2888 27.9995 12.2977 27.9816 12.3247C28.5649 12.872 28.8879 13.554 28.8879 14.3616C28.8879 15.1603 28.5559 15.8333 27.9636 16.3986C28.5649 16.964 28.8879 17.6459 28.8879 18.4625C28.8879 19.2612 28.5469 19.9342 27.9816 20.4816C28.9776 21.693 29.1751 22.7967 28.52 23.8825C27.6137 25.3721 26.2138 25.426 24.6704 25.1119C24.6704 25.3452 24.6704 25.5785 24.6704 25.8118C24.6434 27.2655 23.5846 28.3782 22.1309 28.3872C21.5117 28.3872 21.063 28.5487 20.5874 28.9615C19.1427 30.1909 17.3929 30.7742 15.5712 31.169C15.1585 31.2587 14.7277 31.2946 14.315 31.3933C14.1534 31.4292 13.9829 31.519 13.8753 31.6446C13.1933 32.4342 12.5203 33.2239 11.8562 34.0315C11.6409 34.2918 11.3896 34.4084 11.0396 34.4084C7.64766 34.3994 4.25568 34.4084 0.863699 34.3994C0.226581 34.3994 0.0022431 34.1661 0.0022431 33.52C0.0022431 31.833 -0.00672984 30.137 0.0112171 28.45C0.0112171 28.2077 0.109925 27.9385 0.244527 27.7411C0.764989 26.9963 1.32135 26.2784 1.85078 25.5516C1.93154 25.4439 2.00333 25.2914 2.00333 25.1657C2.08409 23.1467 2.53277 21.1994 3.2327 19.315C3.65445 18.1754 3.86084 17.0178 3.85187 15.8064C3.8429 13.231 3.85187 10.6556 3.8429 8.0802C3.8429 7.66742 3.89674 7.27259 4.18389 6.94954C4.57872 6.50984 5.06329 6.35729 5.6376 6.48292C6.60673 6.69828 7.43229 7.15593 8.16812 7.92765C8.17709 7.75715 8.18607 7.6405 8.18607 7.53282C8.18607 6.05219 8.23093 4.58054 8.17709 3.09991C8.12325 1.70005 8.65269 0.434786 10.3935 0.00405884C14.4585 0.00405884 18.4876 0.00405884 22.5167 0.00405884ZM5.24276 7.7751C5.23379 7.9456 5.22481 8.08917 5.22481 8.23275C5.22481 10.7184 5.21584 13.2041 5.22481 15.6897C5.23379 17.1434 4.9915 18.5343 4.48001 19.8893C3.79803 21.702 3.39422 23.5774 3.35833 25.5247C3.35833 25.7221 3.25065 25.9374 3.13399 26.099C2.60455 26.8348 2.05717 27.5527 1.52774 28.2885C1.42903 28.4231 1.36621 28.6115 1.36621 28.7731C1.35724 30.0922 1.35724 31.4113 1.35724 32.7393C1.35724 32.8381 1.36621 32.9368 1.37519 33.0355C1.438 33.0444 1.48287 33.0534 1.52774 33.0534C4.59667 33.0534 7.6656 33.0534 10.7345 33.0445C10.8512 33.0445 11.0037 32.9547 11.0845 32.856C11.7755 32.0574 12.4485 31.2498 13.1215 30.4421C13.3099 30.2178 13.5253 30.1191 13.8124 30.0922C15.4546 29.8948 17.0429 29.4999 18.5235 28.7372C18.685 28.6564 18.8376 28.5577 18.9901 28.459C18.9812 28.441 18.9722 28.4141 18.9632 28.3962C18.8376 28.3962 18.7209 28.3962 18.5953 28.3962C16.0289 28.3962 13.4715 28.4052 10.905 28.3962C9.34365 28.3872 8.23991 27.2924 8.23093 25.7311C8.22196 24.6453 8.23093 23.5595 8.23093 22.4737C8.23093 21.9263 8.48219 21.6212 8.91292 21.6212C9.33467 21.6212 9.56798 21.9173 9.56798 22.4557C9.56798 23.4967 9.56798 24.5376 9.56798 25.5785C9.56798 26.5835 10.0346 27.0591 11.0486 27.0591C14.647 27.0591 18.2364 27.0412 21.8347 27.0681C22.6872 27.0771 23.3602 26.6194 23.3602 25.5516C23.3333 17.9869 23.3513 10.4133 23.3513 2.84865C23.3513 2.74995 23.3513 2.65124 23.3513 2.54356C23.3243 1.8526 22.8218 1.35008 22.1219 1.34111C21.2066 1.33214 20.2823 1.34111 19.367 1.34111C19.2773 1.34111 19.1965 1.35008 19.1158 1.35906C18.8555 3.11786 17.9582 4.06008 16.5583 4.087C15.9302 4.10494 15.3649 3.9165 14.8713 3.52167C14.1804 2.97428 13.8842 2.22051 13.8663 1.34111C12.7895 1.34111 11.7396 1.34111 10.6897 1.34111C10.6358 1.34111 10.582 1.35906 10.5281 1.377C9.91795 1.53853 9.5949 2.01412 9.5949 2.74995C9.5949 7.18285 9.5949 11.6158 9.5949 16.0487C9.5949 16.1833 9.60388 16.3179 9.58593 16.4525C9.55003 16.7665 9.30775 17.0088 8.99368 17.0357C8.69756 17.0716 8.39246 16.8652 8.30272 16.5602C8.26683 16.4255 8.25785 16.273 8.25785 16.1294C8.24888 14.5411 8.26683 12.9528 8.23991 11.3645C8.22196 10.4582 7.91686 9.63262 7.32461 8.93268C6.76825 8.31351 6.09524 7.92765 5.24276 7.7751ZM25.8818 23.9184C25.9895 23.9184 26.1061 23.9184 26.2138 23.9184C26.9227 23.8825 27.4791 23.3441 27.5419 22.6531C27.6047 21.9801 27.1381 21.352 26.4471 21.2174C26.1779 21.1635 25.8908 21.1725 25.6126 21.1815C25.0742 21.1994 24.7152 21.5404 24.6793 22.0788C24.6614 22.2942 24.6704 22.5006 24.6704 22.716C24.6793 23.6133 24.9844 23.9184 25.8818 23.9184ZM25.9356 15.7974C26.2407 15.7166 26.5727 15.6897 26.8509 15.5461C27.3624 15.2769 27.5957 14.8103 27.5329 14.236C27.4701 13.6707 27.165 13.231 26.5997 13.0874C26.0343 12.9438 25.4152 12.8272 24.9216 13.3028C24.5358 13.6797 24.5537 15.0526 24.9216 15.4564C25.2088 15.7436 25.5587 15.7525 25.9356 15.7974ZM25.9177 19.8265C26.0074 19.8265 26.0971 19.8265 26.1869 19.8265C26.9137 19.8086 27.488 19.2701 27.5509 18.5612C27.6137 17.8613 27.1112 17.2242 26.3933 17.1165C26.1061 17.0716 25.81 17.0716 25.5228 17.0986C25.0293 17.1434 24.7242 17.4844 24.6883 17.9869C24.6704 18.1844 24.6793 18.3907 24.6793 18.5882C24.6793 19.5393 24.9665 19.8265 25.9177 19.8265ZM24.6793 10.2877C24.6793 10.3864 24.6793 10.4851 24.6793 10.5928C24.6883 11.3017 25.0293 11.6427 25.7203 11.6516C25.9356 11.6516 26.142 11.6606 26.3574 11.6337C27.0304 11.5619 27.5509 10.9607 27.5509 10.2787C27.5509 9.60569 27.0394 9.01344 26.3843 8.94165C26.142 8.91473 25.8908 8.91474 25.6485 8.92371C25.0473 8.95063 24.7063 9.29162 24.6883 9.89285C24.6793 10.0185 24.6793 10.1531 24.6793 10.2877ZM15.2033 1.35906C15.1854 1.90644 15.3828 2.31922 15.8494 2.57945C16.2981 2.83968 16.7557 2.81276 17.1775 2.51664C17.5723 2.24743 17.7428 1.8526 17.7069 1.35008C16.8724 1.35906 16.0648 1.35906 15.2033 1.35906Z" fill="#2D3436"/>
<path d="M14.2608 8.60067C14.2159 7.78408 14.3774 7.03928 15.0325 6.48293C15.4363 6.13296 15.9119 5.95349 16.4503 5.95349C17.1502 5.95349 17.7246 6.23167 18.1822 6.77008C18.6219 7.29952 18.6847 7.94561 18.6757 8.63656C19.2052 8.63656 19.7077 8.63656 20.2102 8.63656C20.8563 8.63656 21.0627 8.83398 21.1255 9.48007C21.3319 11.4632 21.5383 13.4374 21.7536 15.4205C21.8165 16.0038 21.5562 16.3268 20.973 16.3268C17.9758 16.3268 14.9787 16.3268 11.9725 16.3268C11.3803 16.3268 11.1201 16.0576 11.1739 15.4744C11.3354 13.8681 11.5059 12.2708 11.6764 10.6735C11.7213 10.2159 11.7662 9.75825 11.829 9.30958C11.8918 8.8609 12.1161 8.66349 12.5648 8.65451C13.0763 8.64554 13.5967 8.65451 14.1082 8.64554C14.1441 8.62759 14.189 8.60964 14.2608 8.60067ZM12.5648 14.9539C15.1761 14.9539 17.7335 14.9539 20.3448 14.9539C20.1653 13.2938 19.9948 11.6517 19.8243 9.99156C19.4385 9.99156 19.0795 9.99156 18.6668 9.99156C18.6668 10.2069 18.6757 10.4043 18.6668 10.6018C18.6398 11.0325 18.3886 11.2927 18.0117 11.3017C17.6169 11.3107 17.3566 11.0325 17.3297 10.5928C17.3207 10.3954 17.3297 10.198 17.3297 9.97361C16.7913 9.97361 16.3157 9.97361 15.8401 9.97361C15.7773 9.97361 15.7145 9.99156 15.6248 10.0095C15.6248 10.2069 15.6248 10.3954 15.6248 10.5838C15.6158 11.0145 15.3645 11.2837 14.9876 11.3017C14.5928 11.3196 14.3057 11.0415 14.2877 10.6107C14.2787 10.4133 14.2877 10.2159 14.2877 10.0005C13.8839 10.0005 13.507 10.0005 13.1122 10.0005C12.9148 11.6517 12.7443 13.2848 12.5648 14.9539ZM17.2938 8.60964C17.3387 8.10713 17.3477 7.65845 16.8721 7.39822C16.567 7.22773 16.2439 7.24567 15.9568 7.45206C15.6337 7.69435 15.526 8.1161 15.6606 8.60964C16.1901 8.60964 16.7285 8.60964 17.2938 8.60964Z" fill="#2D3436"/>
<path d="M16.4504 19.2702C17.0426 19.2702 17.6349 19.2432 18.2271 19.2791C19.4027 19.3419 20.3359 20.3111 20.3718 21.4597C20.4167 22.6891 19.6001 23.7659 18.3976 23.8466C17.0965 23.9364 15.7774 23.9364 14.4762 23.8466C13.3186 23.7659 12.4662 22.6442 12.52 21.5046C12.5738 20.3111 13.4891 19.3509 14.6647 19.2791C15.2569 19.2343 15.8581 19.2702 16.4504 19.2702ZM16.4594 22.5634C16.9619 22.5634 17.4644 22.5724 17.9669 22.5634C18.595 22.5545 19.0168 22.1506 19.0258 21.5853C19.0258 21.02 18.613 20.6072 17.9848 20.6072C16.9708 20.5982 15.9479 20.5982 14.9339 20.6072C14.3057 20.6162 13.875 21.02 13.866 21.5763C13.866 22.1417 14.3147 22.5634 14.9518 22.5724C15.4543 22.5634 15.9568 22.5634 16.4594 22.5634Z" fill="#2D3436"/>
<path d="M9.56752 19.2971C9.56752 19.674 9.28037 19.9521 8.91245 19.9521C8.54454 19.9521 8.24841 19.665 8.23944 19.306C8.23047 18.9381 8.55351 18.6151 8.92143 18.6241C9.28037 18.633 9.56752 18.9381 9.56752 19.2971Z" fill="#2D3436"/>
</svg>
