<svg width="25" height="30" viewBox="0 0 25 30" fill="none" xmlns="http://www.w3.org/2000/svg">
<path d="M12.5 3.18893C15.2614 3.18893 17.5 4.33374 17.5 6.6647V10.7136H7.5V6.6647C7.5 4.33374 9.73858 3.18893 12.5 3.18893ZM20 10.7136V6.6647C20 3.16826 16.6421 0.706238 12.5 0.706238C8.35786 0.706238 5 3.16826 5 6.6647V10.7136C2.23858 10.7136 0 12.6032 0 14.9342V25.4857C0 27.8166 2.23858 29.7062 5 29.7062H20C22.7614 29.7062 25 27.8166 25 25.4857V14.9342C25 12.6032 22.7614 10.7136 20 10.7136Z" fill="#2D3436"/>
</svg>
