<svg width="29" height="37" viewBox="0 0 29 37" fill="none" xmlns="http://www.w3.org/2000/svg">
<path d="M14.5 2.60624C7.82656 2.60624 2.41667 7.97882 2.41667 14.6062V17.0062H4.83333C6.16802 17.0062 7.25 18.0808 7.25 19.4062V26.6062C7.25 27.9317 6.16802 29.0062 4.83333 29.0062H2.41667C1.08198 29.0062 0 27.9317 0 26.6062V14.6062C0 6.65334 6.49187 0.206238 14.5 0.206238C22.5081 0.206238 29 6.65334 29 14.6062V29.0062C29 32.32 26.2951 35.0062 22.9583 35.0062H17.8017C17.3838 35.7236 16.6028 36.2062 15.7083 36.2062H13.2917C11.957 36.2062 10.875 35.1317 10.875 33.8062C10.875 32.4808 11.957 31.4062 13.2917 31.4062H15.7083C16.6028 31.4062 17.3838 31.8889 17.8017 32.6062H22.9583C24.9604 32.6062 26.5833 30.9945 26.5833 29.0062H24.1667C22.832 29.0062 21.75 27.9317 21.75 26.6062V19.4062C21.75 18.0808 22.832 17.0062 24.1667 17.0062H26.5833V14.6062C26.5833 7.97882 21.1734 2.60624 14.5 2.60624Z" fill="#2D3436"/>
</svg>
